<svg version="1.1" xmlns="http://www.w3.org/2000/svg" x="0px" y="0px" width="100px" height="100px" viewBox="0 0 100 100">
    <defs>
        <clipPath id="myClip">
            <path d="M48.28,7.333v82.838c0,1.381-1.117,2.496-2.495,2.496H14.762c-1.379,0-2.499-1.115-2.499-2.496V7.333H25.64v72.029h9.268V7.333H48.28z M65.1,92.667V20.64h9.265v72.027h13.374V9.83c0-1.379-1.117-2.497-2.497-2.497H54.219c-1.379,0-2.497,1.118-2.497,2.497v82.837H65.1z"/>
        </clipPath>
    </defs>
    <path clip-path="url(#myClip)" fill="none" stroke="#000000" stroke-width="20" d="M18.5,7c0,0,0,68.5,0,75.5s22.75,7,22.75,0C41.417,56.5,41.301,7,41.301,7"/>
    <path clip-path="url(#myClip)" fill="none" stroke="#000000" stroke-width="20" d="M81.5,93c0,0,0-68.5,0-75.5s-22.91-7-22.91,0c-0.166,26,0.029,75.5,0.029,75.5"/>
</svg>