<?xml version="1.0" encoding="UTF-8" standalone="no"?>
<!-- Generator: Adobe Illustrator 16.0.0, SVG Export Plug-In . SVG Version: 6.00 Build 0)  -->

<svg
   xmlns:dc="http://purl.org/dc/elements/1.1/"
   xmlns:cc="http://creativecommons.org/ns#"
   xmlns:rdf="http://www.w3.org/1999/02/22-rdf-syntax-ns#"
   xmlns:svg="http://www.w3.org/2000/svg"
   xmlns="http://www.w3.org/2000/svg"
   xmlns:sodipodi="http://sodipodi.sourceforge.net/DTD/sodipodi-0.dtd"
   xmlns:inkscape="http://www.inkscape.org/namespaces/inkscape"
   version="1.1"
   id="图层_1"
   x="0px"
   y="0px"
   width="100"
   height="100"
   viewBox="0 0 100 100"
   enable-background="new 0 0 200 200"
   xml:space="preserve"
   inkscape:version="0.91 r13725"
   sodipodi:docname="er.svg"><metadata
     id="metadata15"><rdf:RDF><cc:Work
         rdf:about=""><dc:format>image/svg+xml</dc:format><dc:type
           rdf:resource="http://purl.org/dc/dcmitype/StillImage" /><dc:title /></cc:Work></rdf:RDF></metadata><defs
     id="defs13" /><sodipodi:namedview
     pagecolor="#ffffff"
     bordercolor="#666666"
     borderopacity="1"
     objecttolerance="10"
     gridtolerance="10"
     guidetolerance="10"
     inkscape:pageopacity="0"
     inkscape:pageshadow="2"
     inkscape:window-width="1280"
     inkscape:window-height="756"
     id="namedview11"
     showgrid="false"
     inkscape:zoom="4.72"
     inkscape:cx="53.171795"
     inkscape:cy="46.535797"
     inkscape:window-x="8"
     inkscape:window-y="0"
     inkscape:window-maximized="0"
     inkscape:current-layer="图层_1" /><path
     style="fill:none;fill-rule:evenodd;stroke:#d71718;stroke-width:0.2;stroke-linecap:butt;stroke-linejoin:miter;stroke-miterlimit:4;stroke-dasharray:none;stroke-opacity:1"
     d="M 63.929688 10.804688 L 47.193359 14.089844 L 38.189453 15.835938 L 34.904297 16.84375 L 30.826172 18.644531 L 25.529297 21.240234 L 22.140625 22.298828 L 21.398438 21.980469 L 20.179688 20.021484 L 21.027344 18.960938 L 21.927734 18.431641 L 21.927734 17.267578 L 21.292969 17.320312 L 20.392578 18.060547 L 19.544922 19.861328 L 19.121094 21.503906 L 19.861328 23.251953 L 22.457031 25.689453 L 24.894531 26.90625 L 26.853516 27.330078 L 31.992188 24.046875 L 35.541016 22.298828 L 41.683594 20.445312 L 47.404297 19.544922 L 52.490234 19.121094 L 56.355469 19.121094 L 58.050781 20.708984 L 62.552734 21.132812 L 66.367188 20.869141 L 69.703125 19.384766 L 71.345703 17.320312 L 71.503906 16.154297 L 70.921875 14.513672 L 69.492188 13.347656 L 66.207031 12.076172 L 63.929688 10.804688 z M 39.300781 22.457031 L 39.248047 24.205078 L 40.253906 27.224609 L 40.835938 29.236328 L 39.777344 31.355469 L 37.658203 34.322266 L 34.269531 38.029297 L 31.779297 40.677734 L 31.759766 40.710938 L 31.302734 40.677734 L 29.925781 40.625 L 29.130859 41.207031 L 26.642578 44.173828 L 24.576172 48.517578 L 22.564453 53.654297 L 22.246094 56.621094 L 22.351562 59.533203 L 23.09375 62.181641 L 25.318359 65.890625 L 27.701172 67.054688 L 29.978516 67.425781 L 31.302734 67.214844 L 33.369141 65.095703 L 34.851562 62.128906 L 35.328125 58.740234 L 35.117188 52.330078 L 34.533203 53.814453 L 34.216797 54.978516 L 33.103516 57.308594 L 31.884766 58.845703 L 30.667969 59.640625 L 29.873047 59.480469 L 29.978516 56.621094 L 30.296875 54.873047 L 30.931641 54.025391 L 32.361328 53.072266 L 33.632812 52.806641 L 33.792969 51.166016 L 33.208984 49.789062 L 32.361328 47.722656 L 32.785156 46.240234 L 32.763672 46.080078 L 32.892578 46.080078 L 34.585938 45.550781 L 38.505859 42.955078 L 40.253906 42.214844 L 40.691406 41.921875 L 42.054688 42.955078 L 42.902344 42.849609 L 46.015625 41.558594 L 47.115234 40.974609 L 48.052734 40.712891 L 48.726562 40.974609 L 49.175781 42.023438 L 49.324219 44.007812 L 49.587891 45.207031 L 49.099609 51.574219 L 48.951172 70.224609 L 48.164062 76.591797 L 48.613281 78.951172 L 49.474609 81.199219 L 50.972656 83.595703 L 53.033203 85.392578 L 54.830078 86.253906 L 55.392578 85.619141 L 55.691406 83.970703 L 55.355469 82.171875 L 55.878906 76.892578 L 55.992188 59.8125 L 56.328125 54.945312 L 56.964844 49.626953 L 54.869141 46.068359 L 53.294922 43.859375 L 50.298828 40.9375 L 47.904297 39.681641 L 49.152344 38.929688 L 51.324219 39.248047 L 52.382812 38.771484 L 52.914062 39.195312 L 54.396484 39.566406 L 55.984375 39.513672 L 60.433594 38.347656 L 62.394531 38.505859 L 63.929688 39.40625 L 65.095703 44.015625 L 65.783203 48.199219 L 66.101562 52.914062 L 65.466797 57.044922 L 63.929688 60.169922 L 62.289062 59.640625 L 59.427734 57.255859 L 57.785156 56.355469 L 59.269531 60.009766 L 60.541016 64.300781 L 61.705078 67.955078 L 63.029297 70.65625 L 65.095703 72.880859 L 65.359375 72.404297 L 66.367188 71.556641 L 69.068359 70.021484 L 70.65625 68.644531 L 71.503906 67.054688 L 71.451172 65.730469 L 72.085938 64.248047 L 73.146484 61.441406 L 73.833984 58.685547 L 74.046875 52.914062 L 73.357422 48.041016 L 72.298828 44.332031 L 70.65625 40.625 L 69.755859 39.248047 L 66.896484 36.599609 L 63.611328 34.640625 L 60.646484 33.685547 L 54.607422 32.998047 L 48.304688 33.527344 L 47.779297 33.759766 L 47.828125 33.632812 L 47.509766 31.039062 L 46.716797 29.34375 L 45.126953 27.648438 L 43.484375 26.111328 L 41.207031 24.365234 L 39.300781 22.457031 z M 40.710938 44.794922 L 39.511719 48.501953 L 38.576172 52.060547 L 38.164062 55.169922 L 38.164062 57.902344 L 38.763672 60.1875 L 39.886719 62.097656 L 40.785156 62.623047 L 42.134766 63.933594 L 42.771484 64.007812 L 43.595703 63.089844 L 43.371094 61.835938 L 43.707031 59.550781 L 45.09375 55.84375 L 45.355469 53.857422 L 45.054688 52.546875 L 45.955078 51.125 L 45.992188 50.113281 L 45.730469 49.251953 L 44.644531 47.753906 L 42.583984 45.917969 L 41.796875 44.869141 L 41.314453 44.808594 L 40.710938 44.794922 z "
     id="path4201" /><g
     inkscape:groupmode="layer"
     id="stroke_group"
     inkscape:label="Layer 1"
     style="display:inline"><g
       id="g4217"><path
         inkscape:connector-curvature="0"
         style="fill:none;fill-rule:evenodd;stroke:none;stroke-width:0.2;stroke-linecap:butt;stroke-linejoin:miter;stroke-miterlimit:4;stroke-dasharray:none;stroke-opacity:1"
         d="m 21.927966,17.266949 0,1.165254 -0.900424,0.529661 -0.847457,1.059322 1.21822,1.959746 0.741526,0.317797 3.38983,-1.059322 5.29661,-2.595339 4.07839,-1.800848 3.283898,-1.006356 9.004238,-1.747881 16.737288,-3.283898 2.277542,1.271186 3.283899,1.271186 1.430084,1.165255 0.582627,1.641949 -0.158898,1.165254"
         id="path4219" /><path
         style="fill:none;fill-rule:evenodd;stroke:none;stroke-width:0.1;stroke-linecap:butt;stroke-linejoin:miter;stroke-miterlimit:4;stroke-dasharray:none;stroke-opacity:1"
         d="m 69.862288,16.57839 -7.574152,-1.165254 -9.957627,0.582627 -15.677967,2.913135 -10.752119,5.084746 -2.754237,0.158898 -1.800847,-0.900424 -1.324153,-1.959745 -0.225105,-1.032839 0.119173,-0.529661 0.794492,-1.257945 0.768008,-0.701801"
         id="path4221"
         inkscape:connector-curvature="0"
         sodipodi:nodetypes="cccccccc" /><path
         inkscape:connector-curvature="0"
         style="fill:none;fill-rule:evenodd;stroke:none;stroke-width:0.2;stroke-linecap:butt;stroke-linejoin:miter;stroke-miterlimit:4;stroke-dasharray:none;stroke-opacity:1"
         d="m 71.345339,17.319915 -1.641949,2.065678 -3.336864,1.483051 -3.81356,0.26483 -4.502118,-0.423728 -1.694916,-1.588983 -3.866525,0 -5.084746,0.423728 -5.720339,0.900424 -6.144068,1.853814 -3.548729,1.747881 -5.137711,3.283898 -1.959746,-0.423728 -2.436441,-1.218221 -2.595339,-2.436441 -0.741525,-1.747881 0.423729,-1.641949 0.847457,-1.800847 0.900424,-0.741526 0.635593,-0.05297"
         id="path4223" /><path
         inkscape:connector-curvature="0"
         id="path4225"
         d="m 21.927966,17.266949 0,1.165254 -0.900424,0.529661 -0.847457,1.059322 1.21822,1.959746 0.741526,0.317797 3.38983,-1.059322 5.29661,-2.595339 4.07839,-1.800848 3.283898,-1.006356 9.004238,-1.747881 16.737288,-3.283898 2.277542,1.271186 3.283899,1.271186 1.430084,1.165255 0.582627,1.641949 -0.158898,1.165254 -1.641949,2.065678 -3.336864,1.483051 -3.81356,0.26483 -4.502118,-0.423728 -1.694916,-1.588983 -3.866525,0 -5.084746,0.423728 -5.720339,0.900424 -6.144068,1.853814 -3.548729,1.747881 -5.137711,3.283898 -1.959746,-0.423728 -2.436441,-1.218221 -2.595339,-2.436441 -0.741525,-1.747881 0.423729,-1.641949 0.847457,-1.800847 0.900424,-0.741526 z"
         style="fill:none;fill-rule:evenodd;stroke:none;stroke-width:0.2;stroke-linecap:butt;stroke-linejoin:miter;stroke-miterlimit:4;stroke-dasharray:none;stroke-opacity:1" /></g><g
       id="g4227"><path
         inkscape:connector-curvature="0"
         style="fill:none;fill-rule:evenodd;stroke:none;stroke-width:0.1;stroke-linecap:butt;stroke-linejoin:miter;stroke-miterlimit:4;stroke-dasharray:none;stroke-opacity:1"
         d="M 30.98517,45.762712 30.561441,44.862288 30.455509,43.802966 30.773305,42.637712 31.25,41.57839 l 0.529661,-0.900424 2.489407,-2.648305 3.38983,-3.707627 2.118644,-2.966102 1.059322,-2.118644 -0.582627,-2.012712 -1.006356,-3.019068 0.05297,-1.747881"
         id="path4229" /><path
         style="fill:none;fill-rule:evenodd;stroke:none;stroke-width:0.2;stroke-linecap:butt;stroke-linejoin:miter;stroke-miterlimit:4;stroke-dasharray:none;stroke-opacity:1"
         d="m 39.830509,23.834746 3.336864,4.872881 0.847458,2.17161 -0.42373,2.17161 -1.536016,2.436441 -10.487288,9.586864"
         id="path4231"
         inkscape:connector-curvature="0"
         sodipodi:nodetypes="cccccc" /><path
         inkscape:connector-curvature="0"
         style="fill:none;fill-rule:evenodd;stroke:none;stroke-width:0.1;stroke-linecap:butt;stroke-linejoin:miter;stroke-miterlimit:4;stroke-dasharray:none;stroke-opacity:1"
         d="m 39.300848,22.457627 1.906779,1.90678 2.277543,1.747881 1.641949,1.536017 1.588983,1.694915 0.794491,1.694915 0.317797,2.595339 -0.794492,2.065678 -1.694915,2.489407 -2.012712,1.959746 -3.072034,2.065678 -1.747881,0.741525 -3.919492,2.595339 -1.694915,0.529661 -1.165254,0 -0.741525,-0.317796"
         id="path4233" /><path
         inkscape:connector-curvature="0"
         id="path4235"
         d="m 39.300848,22.457627 1.906779,1.90678 2.277543,1.747881 1.641949,1.536017 1.588983,1.694915 0.794491,1.694915 0.317797,2.595339 -0.794492,2.065678 -1.694915,2.489407 -2.012712,1.959746 -3.072034,2.065678 -1.747881,0.741525 -3.919492,2.595339 -1.694915,0.529661 -1.165254,0 -0.741525,-0.317796 -0.423729,-0.900424 -0.105932,-1.059322 0.317796,-1.165254 0.476695,-1.059322 0.529661,-0.900424 2.489407,-2.648305 3.38983,-3.707627 2.118644,-2.966102 1.059322,-2.118644 -0.582627,-2.012712 -1.006356,-3.019068 z"
         style="fill:none;fill-rule:evenodd;stroke:none;stroke-width:0.1;stroke-linecap:butt;stroke-linejoin:miter;stroke-miterlimit:4;stroke-dasharray:none;stroke-opacity:1" /></g><g
       id="g4237"><path
         inkscape:connector-curvature="0"
         style="fill:none;fill-rule:evenodd;stroke:none;stroke-width:0.1;stroke-linecap:butt;stroke-linejoin:miter;stroke-miterlimit:4;stroke-dasharray:none;stroke-opacity:1"
         d="m 35.116525,52.330508 0.211865,6.408899 -0.476695,3.38983 -1.483051,2.966102 -2.065678,2.118644 -1.324152,0.211864 -2.277543,-0.370762 -2.383474,-1.165255 -2.224577,-3.707627 -0.741525,-2.648305 -0.105932,-2.913135 0.317796,-2.966102 2.012712,-5.137712 2.065678,-4.34322 2.489407,-2.966102 0.794492,-0.582627 1.377118,0.05297"
         id="path4239" /><path
         style="fill:none;fill-rule:evenodd;stroke:none;stroke-width:0.2;stroke-linecap:butt;stroke-linejoin:miter;stroke-miterlimit:4;stroke-dasharray:none;stroke-opacity:1"
         d="m 31.091102,40.995763 -1.588984,5.56144 -1.324152,4.184323 -1.483051,4.713982 -0.476695,3.230933 0.95339,3.125 2.17161,1.747881 2.330509,-1.006356 1.641949,-2.330508 0.95339,-2.648306 0.476695,-2.701271"
         id="path4241"
         inkscape:connector-curvature="0"
         sodipodi:nodetypes="ccccccccccc" /><path
         inkscape:connector-curvature="0"
         style="fill:none;fill-rule:evenodd;stroke:none;stroke-width:0.1;stroke-linecap:butt;stroke-linejoin:miter;stroke-miterlimit:4;stroke-dasharray:none;stroke-opacity:1"
         d="m 31.302966,40.677966 2.224576,0.158898 -0.741525,1.324153 -0.423729,1.430085 0.264831,1.48305 0.158898,1.165255 -0.423729,1.483051 0.847458,2.065677 0.582627,1.377119 -0.158898,1.641949 -1.271187,0.264831 -1.430085,0.95339 -0.635593,0.847457 -0.317796,1.747882 -0.105933,2.860169 0.794492,0.158898 1.21822,-0.794491 1.218221,-1.536017 1.112288,-2.330509 0.317796,-1.165254 0.582627,-1.483051"
         id="path4243" /><path
         inkscape:connector-curvature="0"
         id="path4245"
         d="m 31.302966,40.677966 2.224576,0.158898 -0.741525,1.324153 -0.423729,1.430085 0.264831,1.48305 0.158898,1.165255 -0.423729,1.483051 0.847458,2.065677 0.582627,1.377119 -0.158898,1.641949 -1.271187,0.264831 -1.430085,0.95339 -0.635593,0.847457 -0.317796,1.747882 -0.105933,2.860169 0.794492,0.158898 1.21822,-0.794491 1.218221,-1.536017 1.112288,-2.330509 0.317796,-1.165254 0.582627,-1.483051 0.211865,6.408899 -0.476695,3.38983 -1.483051,2.966102 -2.065678,2.118644 -1.324152,0.211864 -2.277543,-0.370762 -2.383474,-1.165255 -2.224577,-3.707627 -0.741525,-2.648305 -0.105932,-2.913135 0.317796,-2.966102 2.012712,-5.137712 2.065678,-4.34322 2.489407,-2.966102 0.794492,-0.582627 z"
         style="fill:none;fill-rule:evenodd;stroke:none;stroke-width:0.1;stroke-linecap:butt;stroke-linejoin:miter;stroke-miterlimit:4;stroke-dasharray:none;stroke-opacity:1" /></g><g
       id="g4247"><path
         inkscape:connector-curvature="0"
         style="fill:none;fill-rule:evenodd;stroke:none;stroke-width:0.1;stroke-linecap:butt;stroke-linejoin:miter;stroke-miterlimit:4;stroke-dasharray:none;stroke-opacity:1"
         d="m 57.786021,56.355932 1.641949,0.900424 2.86017,2.383474 1.641949,0.529661 1.536017,-3.125 0.635593,-4.131355 -0.317797,-4.713984 -0.688559,-4.184322 -1.165254,-4.60805 -1.536017,-0.900424 -1.959746,-0.158898 -4.449152,1.165254 -1.588983,0.05297 -1.483051,-0.370763 -0.529661,-0.423729 -1.059322,0.476695 -2.171611,-0.317796 -1.377118,0.423728 -0.900424,1.324153 -1.324152,1.165254 -2.648306,1.006356 -0.847457,0.105932 -1.536021,-1.165258"
         id="path4249" /><path
         style="fill:none;fill-rule:evenodd;stroke:none;stroke-width:0.2;stroke-linecap:butt;stroke-linejoin:miter;stroke-miterlimit:4;stroke-dasharray:none;stroke-opacity:1"
         d="m 40.942797,41.260593 7.150423,-4.819915 6.144068,-0.635593 6.726695,0.26483 4.661017,2.012712 1.641949,2.436441 2.118644,6.408898 0.794492,5.667373 -0.741526,4.713983 -1.959745,5.455508 -1.853814,4.449153 -5.985169,-8.633475"
         id="path4251"
         inkscape:connector-curvature="0"
         sodipodi:nodetypes="cccccccccccc" /><path
         inkscape:connector-curvature="0"
         style="fill:none;fill-rule:evenodd;stroke:none;stroke-width:0.1;stroke-linecap:butt;stroke-linejoin:miter;stroke-miterlimit:4;stroke-dasharray:none;stroke-opacity:1"
         d="m 40.519068,41.790254 -0.529661,-0.794491 0.105932,-1.800848 1.641949,-2.065678 2.489407,-1.800847 4.07839,-1.800848 6.302966,-0.529661 6.038136,0.68856 2.966101,0.953389 3.283899,1.959746 2.860169,2.648305 0.900424,1.377119 1.641949,3.707627 1.059322,3.707627 0.688559,4.872882 -0.211864,5.773305 -0.688559,2.754237 -1.059322,2.807203 -0.635594,1.483051 0.05297,1.324153 -0.847457,1.588983 -1.588983,1.377118 -2.701271,1.536017 -1.006356,0.847458 -0.264831,0.476695 -2.065678,-2.224576 -1.324152,-2.701272 -1.165255,-3.654661 -1.271186,-4.290254 -1.483051,-3.654661"
         id="path4254" /><path
         inkscape:connector-curvature="0"
         id="path4256"
         d="m 40.519068,41.790254 -0.529661,-0.794491 0.105932,-1.800848 1.641949,-2.065678 2.489407,-1.800847 4.07839,-1.800848 6.302966,-0.529661 6.038136,0.68856 2.966101,0.953389 3.283899,1.959746 2.860169,2.648305 0.900424,1.377119 1.641949,3.707627 1.059322,3.707627 0.688559,4.872882 -0.211864,5.773305 -0.688559,2.754237 -1.059322,2.807203 -0.635594,1.483051 0.05297,1.324153 -0.847457,1.588983 -1.588983,1.377118 -2.701271,1.536017 -1.006356,0.847458 -0.264831,0.476695 -2.065678,-2.224576 -1.324152,-2.701272 -1.165255,-3.654661 -1.271186,-4.290254 -1.483051,-3.654661 1.641949,0.900424 2.86017,2.383474 1.641949,0.529661 1.536017,-3.125 0.635593,-4.131355 -0.317797,-4.713984 -0.688559,-4.184322 -1.165254,-4.60805 -1.536017,-0.900424 -1.959746,-0.158898 -4.449152,1.165254 -1.588983,0.05297 -1.483051,-0.370763 -0.529661,-0.423729 -1.059322,0.476695 -2.171611,-0.317796 -1.377118,0.423728 -0.900424,1.324153 -1.324152,1.165254 -2.648306,1.006356 -0.847457,0.105932 z"
         style="fill:none;fill-rule:evenodd;stroke:none;stroke-width:0.1;stroke-linecap:butt;stroke-linejoin:miter;stroke-miterlimit:4;stroke-dasharray:none;stroke-opacity:1" /></g><g
       id="g4258"><path
         inkscape:connector-curvature="0"
         style="fill:none;fill-rule:evenodd;stroke:none;stroke-width:0.1;stroke-linecap:butt;stroke-linejoin:miter;stroke-miterlimit:4;stroke-dasharray:none;stroke-opacity:1"
         d="m 42.770975,64.007966 -0.636696,-0.0749 -1.348296,-1.310844 -0.898865,-0.524338 -1.123581,-1.910087 -0.599243,-2.284614 0,-2.734047 0.411979,-3.108573 0.936318,-3.558005 1.198486,-3.707817 0.602482,0.01458"
         id="path4260" /><path
         style="fill:none;fill-rule:evenodd;stroke:none;stroke-width:0.1;stroke-linecap:butt;stroke-linejoin:miter;stroke-miterlimit:4;stroke-dasharray:none;stroke-opacity:1"
         d="m 41.347769,45.244168 0.599244,2.921309 0.262168,2.209709 -0.337074,2.659141 -0.374527,2.771499 -0.374531,2.322067 0.149815,2.284614 1.53556,2.958762"
         id="path4263"
         inkscape:connector-curvature="0"
         sodipodi:nodetypes="cccccccc" /><path
         inkscape:connector-curvature="0"
         style="fill:none;fill-rule:evenodd;stroke:none;stroke-width:0.1;stroke-linecap:butt;stroke-linejoin:miter;stroke-miterlimit:4;stroke-dasharray:none;stroke-opacity:1"
         d="m 41.313559,44.809322 0.483643,0.06032 0.786506,1.048675 2.059898,1.835182 1.086128,1.498107 0.262169,0.861412 -0.03745,1.011223 -0.898864,1.423202 0.299621,1.310844 -0.262169,1.984993 -1.385749,3.707816 -0.337074,2.284614 0.224716,1.254665 -0.823959,0.917591"
         id="path4265" /><path
         sodipodi:nodetypes="cccccccccccccccccccccccc"
         inkscape:connector-curvature="0"
         id="path4267"
         d="m 41.313559,44.809322 0.483643,0.06032 0.786506,1.048675 2.059898,1.835182 1.086128,1.498107 0.262169,0.861412 -0.03745,1.011223 -0.898864,1.423202 0.299621,1.310844 -0.262169,1.984993 -1.385749,3.707816 -0.337074,2.284614 0.224716,1.254665 -0.823959,0.917591 -0.636696,-0.0749 -1.348296,-1.310844 -0.898865,-0.524338 -1.123581,-1.910087 -0.599243,-2.284614 0,-2.734047 0.411979,-3.108573 0.936318,-3.558005 1.198486,-3.707817 z"
         style="fill:none;fill-rule:evenodd;stroke:none;stroke-width:0.1;stroke-linecap:butt;stroke-linejoin:miter;stroke-miterlimit:4;stroke-dasharray:none;stroke-opacity:1" /></g><g
       id="g4269"><path
         inkscape:connector-curvature="0"
         style="fill:none;fill-rule:evenodd;stroke:none;stroke-width:0.1;stroke-linecap:butt;stroke-linejoin:miter;stroke-miterlimit:4;stroke-dasharray:none;stroke-opacity:1"
         d="m 54.830738,86.254863 -1.797729,-0.861412 -2.059898,-1.797729 -1.498108,-2.396972 -0.861412,-2.247162 -0.449432,-2.359519 0.786507,-6.366957 0.14981,-18.65144 0.486885,-6.366957 -0.262169,-1.198486 -0.14981,-1.984993 -0.449433,-1.048675 -0.674148,-0.262169 -0.936317,0.262169 -0.636696,0.299621 1.423202,-1.835181"
         id="path4271" /><path
         style="fill:none;fill-rule:evenodd;stroke:none;stroke-width:0.1;stroke-linecap:butt;stroke-linejoin:miter;stroke-miterlimit:4;stroke-dasharray:none;stroke-opacity:1"
         d="m 49.512456,41.23673 1.235939,1.722823 0.749053,1.685372 0.82396,2.247161 0.599243,1.760276 -0.82396,27.902254 0,2.659141 2.172256,5.580451"
         id="path4273"
         inkscape:connector-curvature="0" /><path
         inkscape:connector-curvature="0"
         style="fill:none;fill-rule:evenodd;stroke:none;stroke-width:0.1;stroke-linecap:butt;stroke-linejoin:miter;stroke-miterlimit:4;stroke-dasharray:none;stroke-opacity:1"
         d="m 47.90199,39.439001 2.396972,1.498107 2.996216,2.92131 1.573013,2.209709 2.09735,3.558005 -0.636696,5.318282 -0.337074,4.86885 -0.112358,17.078426 -0.524338,5.28083 0.337075,1.797729 -0.299622,1.647918 -0.56179,0.636696"
         id="path4275" /><path
         inkscape:connector-curvature="0"
         id="path4277"
         d="m 47.90199,39.439001 2.396972,1.498107 2.996216,2.92131 1.573013,2.209709 2.09735,3.558005 -0.636696,5.318282 -0.337074,4.86885 -0.112358,17.078426 -0.524338,5.28083 0.337075,1.797729 -0.299622,1.647918 -0.56179,0.636696 -1.797729,-0.861412 -2.059898,-1.797729 -1.498108,-2.396972 -0.861412,-2.247162 -0.449432,-2.359519 0.786507,-6.366957 0.14981,-18.65144 0.486885,-6.366957 -0.262169,-1.198486 -0.14981,-1.984993 -0.449433,-1.048675 -0.674148,-0.262169 -0.936317,0.262169 -0.636696,0.299621 z"
         style="fill:none;fill-rule:evenodd;stroke:none;stroke-width:0.1;stroke-linecap:butt;stroke-linejoin:miter;stroke-miterlimit:4;stroke-dasharray:none;stroke-opacity:1" /></g></g></svg>