<?xml version="1.0" encoding="UTF-8" standalone="no"?>
<!-- Generator: Adobe Illustrator 16.0.0, SVG Export Plug-In . SVG Version: 6.00 Build 0)  -->

<svg
   xmlns:dc="http://purl.org/dc/elements/1.1/"
   xmlns:cc="http://creativecommons.org/ns#"
   xmlns:rdf="http://www.w3.org/1999/02/22-rdf-syntax-ns#"
   xmlns:svg="http://www.w3.org/2000/svg"
   xmlns="http://www.w3.org/2000/svg"
   xmlns:sodipodi="http://sodipodi.sourceforge.net/DTD/sodipodi-0.dtd"
   xmlns:inkscape="http://www.inkscape.org/namespaces/inkscape"
   version="1.1"
   id="图层_1"
   x="0px"
   y="0px"
   width="200px"
   height="200px"
   viewBox="0 0 200 200"
   enable-background="new 0 0 200 200"
   xml:space="preserve"
   inkscape:version="0.91 r13725"
   sodipodi:docname="者.svg"><metadata
     id="metadata17"><rdf:RDF><cc:Work
         rdf:about=""><dc:format>image/svg+xml</dc:format><dc:type
           rdf:resource="http://purl.org/dc/dcmitype/StillImage" /><dc:title></dc:title></cc:Work></rdf:RDF></metadata><defs
     id="defs15" /><sodipodi:namedview
     pagecolor="#ffffff"
     bordercolor="#666666"
     borderopacity="1"
     objecttolerance="10"
     gridtolerance="10"
     guidetolerance="10"
     inkscape:pageopacity="0"
     inkscape:pageshadow="2"
     inkscape:window-width="1642"
     inkscape:window-height="864"
     id="namedview13"
     showgrid="false"
     inkscape:zoom="6.675088"
     inkscape:cx="78.645279"
     inkscape:cy="82.278107"
     inkscape:window-x="203"
     inkscape:window-y="29"
     inkscape:window-maximized="0"
     inkscape:current-layer="stroke_group" /><g
     id="g3" /><path
     id="path11"
     style="fill:none;stroke:#fd0018;stroke-width:0.53260726;stroke-miterlimit:10;stroke-dasharray:none;stroke-opacity:1"
     d="M 99.390039,76.322358 C 85.025046,81.344927 70.091538,86.10487 55.443399,90.864813 64.924937,77.370814 85.311523,79.995016 99.390039,76.322358 l 0,0 z m 20.102331,29.086962 c 0.855,14.27982 1.70887,29.61015 -0.61182,44.41625 -5.45197,0 -7.4451,-5.54782 -13.18354,-2.62421 l 0,-0.52422 -8.910813,0 c -0.569627,-3.18624 1.424617,-5.84825 2.604952,-8.20778 2.278501,-1.57472 3.416641,0 5.737341,-1.31313 -2.89033,-3.18521 2.84813,-2.66098 3.98738,-4.4963 2.89031,-0.52626 6.91767,1.04847 8.91079,-1.3499 -1.4235,-5.81044 -8.58546,-4.75994 -12.32965,-8.16998 -3.74421,1.31107 -4.31384,-2.13881 -6.306971,-3.71251 -0.285368,-6.07103 3.702011,-10.04411 9.155091,-12.1819 4.31383,1.3489 7.20303,-5.02358 10.94724,-1.83632 l 0,0 z m 18.6344,-75.641007 c -8.30009,1.836329 -16.92553,8.733035 -20.66973,14.806102 l -4.88345,22.752284 1.42573,1.311079 c 10.33542,-10.306738 16.11383,-24.850215 31.04734,-30.398032 5.73622,0.261602 11.1893,3.935281 13.75317,8.695225 2.03422,3.186239 -0.56962,6.371456 -1.99424,8.995659 1.99424,3.711489 4.59809,8.733036 8.9108,10.869798 -0.28426,6.072045 9.72583,6.335692 8.87083,13.194588 -3.13238,1.611513 -8.01694,-0.262625 -11.75892,-1.312101 -11.47579,-1.836329 -22.99154,0.262624 -33.00162,3.186239 l -13.79425,15.331351 c 10.33542,0.786851 13.79425,10.306745 19.24621,16.940825 7.73158,14.8061 2.56499,26.95018 3.41887,43.89305 -4.31383,7.94618 2.8892,15.59296 -3.41887,22.75228 -9.48043,-2.13676 -13.22351,-13.23138 -17.25309,-20.91493 -2.56387,0 -5.08554,-2.96142 -7.11976,-1.34991 -2.19744,-1.08729 -4.92453,0.82467 -7.24411,0.82467 -4.271641,1.61151 -0.28316,6.37248 -3.41776,8.20879 -8.341177,-6.33466 -21.850067,-9.7825 -23.558942,-20.87814 0.284258,-6.63408 4.882343,-11.39505 5.453078,-17.72971 -22.665086,12.14408 -43.050562,34.10952 -66.611727,46.29142 -5.7373354,1.31108 -1.424617,-4.49834 -5.7373354,-5.02257 -1.9942434,-7.42298 0.8549924,-16.68024 7.7715524,-21.70179 0.569625,0 1.424619,0.2616 1.994244,-0.52524 1.139251,3.18522 -1.994244,5.54679 0,8.2088 23.560054,-19.04284 49.683975,-40.482 68.890227,-61.09752 C 70.947642,94.57528 50.276799,119.68914 36.198283,99.598867 37.053277,97.461085 35.34329,95.10053 36.767909,92.701142 56.299501,82.393382 74.691844,69.687254 95.363798,62.302088 97.6423,58.066371 99.106892,53.306427 99.392259,48.28386 92.758846,44.573393 87.02151,44.573393 80.999917,39.2882 89.91072,38.763973 99.961884,36.364585 104.27571,29.243063 c 1.42352,-3.448863 -0.32645,-10.870818 4.27275,-14.543476 7.48508,8.996681 22.41858,4.760966 29.57831,15.068726 l 0,0 z m 12.37186,37.032115 c -2.03422,2.099975 -6.06378,0.787874 -8.91081,1.049476 l 6.87659,-5.547816 c 2.03422,0.263646 0.56852,3.149451 2.03422,4.49834 l 0,0 z"
     inkscape:connector-curvature="0" /><g
     inkscape:groupmode="layer"
     id="stroke_group"
     inkscape:label="Layer 1"><g
       id="g4187"
       style="stroke:none;stroke-opacity:1"
       transform="matrix(1.1263499,0,0,1.0029843,4.0419394,-3.6338842)"><path
         sodipodi:nodetypes="cccccccccccccccccccccccccccccscccccccccccccc"
         inkscape:connector-curvature="0"
         id="path4178"
         d="m 119.27966,32.997877 -0.74152,0.264831 -1.05933,0.370762 -1.05932,0.317797 -1.27118,0.529661 -1.27119,0.688559 -1.21822,0.68856 -1.11229,0.582627 -1.16525,0.847457 -1.11229,0.741526 -1.11229,0.741525 -0.79449,0.68856 -0.84746,0.953389 -1.21822,1.006356 -0.90042,1.059322 -0.74153,0.847458 -0.74152,0.847458 -0.7945,0.953389 -0.63559,0.95339 -0.74152,1.165254 -0.58263,0.370763 -1.218222,0.741526 -1.800847,0.794491 -2.171611,0.529661 -1.694915,0.582627 -1.059322,0.158899 -1.588983,0.370762 -2.754237,0.158899 -1.747882,0.158898 c 0,0 -1.006355,0.05297 -1.21822,0.05297 -0.211864,0 -1.747881,-0.847458 -1.747881,-0.847458 l -1.536017,-0.582627 -1.21822,-0.688559 -1.324153,-0.423729 -1.271186,-0.582627 -1.218221,-0.476695 -1.430085,-0.582627 -1.430084,-0.635593 -1.483051,-0.68856 -1.112288,-0.794491 -1.112288,-0.741526 -1.059322,-0.900423 -0.794492,-0.476695 -0.264831,-0.529662"
         style="fill:none;fill-rule:evenodd;stroke:none;stroke-width:1px;stroke-linecap:butt;stroke-linejoin:miter;stroke-opacity:1" /><path
         inkscape:connector-curvature="0"
         id="path4185"
         d="m 69.915254,43.167373 2.012712,0.741525 1.959746,0.582627 2.118644,0.423729 4.713983,0.317797 2.489407,-0.05297 2.436441,-0.476695 2.701271,-0.635594 2.489407,-1.48305 2.012711,-1.377119 1.588983,-1.853814 1.430085,-1.483051 1.377119,-1.694915 1.694915,-1.21822 1.483052,-0.95339 1.69491,-0.900424 1.16526,-0.476695 2.17161,-0.847457 1.85381,-0.423729 2.43644,-0.317797 2.86017,0.211865 1.48305,0.158898 1.90678,0.529661 1.00636,0.370763 0.68856,0.211864"
         style="fill:none;fill-rule:evenodd;stroke:none;stroke-width:1px;stroke-linecap:butt;stroke-linejoin:miter;stroke-opacity:1" /><path
         sodipodi:nodetypes="cccccccccccccccccccccccccccccccccccccsccccccccccccccccc"
         inkscape:connector-curvature="0"
         id="path4183"
         d="m 67.743645,42.108051 1.959745,0.211864 1.165254,-0.105932 1.483051,-0.158899 1.324153,-0.26483 1.48305,-0.264831 1.377119,-0.476694 1.21822,-0.264831 1.218221,-0.423729 1.059322,-0.423729 1.165254,-0.529661 1.271186,-0.582627 1.006356,-0.688559 0.794492,-0.476695 0.741525,-0.635593 0.794492,-0.635593 0.688559,-0.635594 1.112288,-1.112288 0.741526,-0.95339 0.423729,-0.847457 0.26483,-0.370763 0.95339,-0.741525 2.012712,-1.483051 1.112288,-0.68856 0.95339,-0.635593 1.059322,-0.423729 1.059322,-0.582627 1.165254,-0.635593 1.059322,-0.635593 0.476695,-0.211865 1.324148,-0.582627 0.90043,-0.476695 1.11229,-0.26483 0.90042,-0.264831 0.79449,-0.05297 1.16526,0.158899 1.27118,0.26483 c 0,0 0.52966,0.264831 0.90043,0.370763 0.37076,0.105932 0.84745,0.26483 0.84745,0.26483 l 1.05933,0.211865 0.90042,0.26483 0.90042,0.370763 0.79449,0.370763 0.84746,0.317796 0.74153,0.370763 0.84746,0.529661 0.74152,0.476695 0.84746,0.529661 0.58263,0.529661 0.52966,0.476695 0.52966,0.476695 0.52966,0.688559 0.58263,0.688559 0.47669,0.529661 0.26483,0.317797"
         style="fill:none;fill-rule:evenodd;stroke:none;stroke-width:1px;stroke-linecap:butt;stroke-linejoin:miter;stroke-opacity:1" /><path
         inkscape:connector-curvature="0"
         id="path4175"
         d="m 68.061441,42.425847 1.641949,-0.105932 1.165254,-0.105932 1.483051,-0.158899 1.324153,-0.26483 1.48305,-0.264831 1.377119,-0.476694 1.21822,-0.264831 1.218221,-0.423729 1.059322,-0.423729 1.165254,-0.529661 1.271186,-0.582627 1.006356,-0.688559 0.794492,-0.476695 0.741525,-0.635593 0.794492,-0.635593 0.688559,-0.635594 1.112288,-1.112288 0.741526,-0.95339 0.423729,-0.847457 0.26483,-0.370763 0.95339,-0.741525 2.012712,-1.483051 1.112288,-0.68856 0.95339,-0.635593 1.059322,-0.423729 1.059322,-0.582627 1.165254,-0.635593 1.059322,-0.635593 0.476695,-0.211865 1.324148,-0.582627 0.90043,-0.476695 1.11229,-0.26483 0.90042,-0.264831 0.79449,-0.05297 1.16526,0.158899 1.27118,0.26483 c 0,0 0.52966,0.264831 0.90043,0.370763 0.37076,0.105932 0.84745,0.26483 0.84745,0.26483 l 1.05933,0.211865 0.90042,0.26483 0.90042,0.370763 0.79449,0.370763 0.84746,0.317796 0.74153,0.370763 0.84746,0.529661 0.74152,0.476695 0.84746,0.529661 0.58263,0.529661 0.52966,0.476695 0.52966,0.476695 0.52966,0.688559 0.58263,0.688559 0.47669,0.529661 0.26483,0.317797 -0.74152,0.264831 -1.05933,0.370762 -1.05932,0.317797 -1.27118,0.529661 -1.27119,0.688559 -1.21822,0.68856 -1.11229,0.582627 -1.16525,0.847457 -1.11229,0.741526 -1.11229,0.741525 -0.79449,0.68856 -0.84746,0.953389 -1.21822,1.006356 -0.90042,1.059322 -0.74153,0.847458 -0.74152,0.847458 -0.7945,0.953389 -0.63559,0.95339 -0.74152,1.165254 -0.58263,0.370763 -1.218222,0.741526 -1.800847,0.794491 -2.171611,0.529661 -1.694915,0.582627 -1.059322,0.158899 -1.588983,0.370762 -2.754237,0.158899 -1.747882,0.158898 c 0,0 -1.006355,0.05297 -1.21822,0.05297 -0.211864,0 -1.747881,-0.847458 -1.747881,-0.847458 l -1.536017,-0.582627 -1.21822,-0.688559 -1.324153,-0.423729 -1.271186,-0.582627 -1.218221,-0.476695 -1.430085,-0.582627 -1.430084,-0.635593 -1.483051,-0.68856 -1.112288,-0.794491 -1.112288,-0.741526 -1.059322,-0.900423 -0.794492,-0.476695 z"
         style="fill:none;fill-rule:evenodd;stroke:none;stroke-width:1px;stroke-linecap:butt;stroke-linejoin:miter;stroke-opacity:1" /></g><g
       id="g4223"
       style="stroke:none;stroke-opacity:1"
       transform="matrix(1.1065468,0,0,1.0188491,6.309482,-3.6121416)"><path
         sodipodi:nodetypes="cccccccccccccccccccccccccccccccccccccccccccccccccccccccccc"
         inkscape:connector-curvature="0"
         id="path4217"
         d="m 35.779422,94.398449 -7.707348,0.304945 3.125,-1.694916 3.019068,-1.747881 2.012712,-1.324152 2.17161,-1.483051 1.641949,-0.95339 3.336864,-2.065678 3.283899,-2.012712 3.125,-2.065678 2.966101,-1.90678 2.065678,-1.165254 2.171611,-1.271186 2.118644,-1.271187 2.17161,-1.21822 2.065678,-1.21822 1.588983,-0.900424 2.065678,-1.059322 1.959746,-1.059322 1.430084,-0.68856 1.853814,-1.059322 2.012712,-0.847457 1.906779,-0.847458 1.165255,-0.476695 1.271186,-0.423729 1.165254,-0.529661 1.165255,-0.582627 0.582627,-1.536017 0.794491,-1.483051 0.582627,-1.641949 0.476695,-1.800847 0.635593,-2.012712 0.158899,-1.694915 0.211864,-1.430085 0,-1.694915 0.847458,-5.243644 0.635593,-3.177966 0.635593,-2.383475 0.900424,-3.177966 0.529661,-2.17161 0.741525,-2.012712 0.635594,-2.595339 0.105932,-1.377119 0.105932,-1.324152 0.05297,-1.694916 0.370763,-1.747881 0.158898,-1.694915 0.529661,-1.218221 0.370763,-1.165254 0.476695,-0.847457 0.529661,-0.68856 0.317796,-0.476695 0.264787,-0.105936 0.900424,1.006356 0.741525,0.529661 0.688559,0.688559 0.741526,0.476695 0.847457,0.741526"
         style="fill:none;fill-rule:evenodd;stroke:none;stroke-width:1px;stroke-linecap:butt;stroke-linejoin:miter;stroke-opacity:1" /><path
         inkscape:connector-curvature="0"
         id="path4215"
         d="m 96.028696,22.698967 -0.374526,2.09735 -0.299622,3.146026 0,3.071121 -0.524338,3.445647 -0.374526,4.119796 -0.749054,4.269607 -0.97377,4.943755 -0.97377,4.943755 -0.374527,3.445647 -0.599243,2.92131 -0.449432,3.071121 -0.374527,3.07112 -0.599243,2.92131 -0.749054,2.097351 -2.996215,1.647918 -4.119796,1.123581 -4.793944,1.348297 -5.318282,1.048675 -3.445648,1.048675 -3.520553,1.123581 -4.269606,1.722824 -4.269607,1.573013 -3.146026,1.797729 -2.92131,1.273391 -2.396972,2.172256 -2.09735,1.498108 -2.696594,1.797729 -3.220931,2.621688 -1.273392,0.898865 -0.97377,0.599243"
         style="fill:none;fill-rule:evenodd;stroke:none;stroke-width:1px;stroke-linecap:butt;stroke-linejoin:miter;stroke-opacity:1" /><path
         sodipodi:nodetypes="cccccccccccccccccccccccccccccccccccccccccccccccccccccccccccccccc"
         inkscape:connector-curvature="0"
         id="path4221"
         d="m 96.504237,21.875 1.165255,0.529661 0.794491,0.476695 1.006356,0.370762 0.900421,0.317797 1.32416,0.317797 0.90042,0.317796 0.79449,0.370763 0.21187,0.05297 -0.58263,4.872881 0.053,1.959746 -0.21186,2.542373 -0.3178,2.277542 -0.63559,4.025424 -0.58263,2.542373 -0.52966,3.336864 -0.1589,1.694916 -0.63559,2.648305 -0.211864,1.483051 -0.317797,1.536017 -0.317796,1.377118 -0.264831,1.218221 -0.423729,1.641949 -0.26483,2.012712 -0.423729,1.694915 -0.370763,1.694915 -0.370763,1.90678 -0.26483,1.694915 -0.264831,1.536017 -0.317796,1.588983 0.582627,0.635593 -0.900424,3.019068 -0.847457,2.224576 -0.95339,1.959746 -1.218221,0.95339 -2.330508,0.370763 -2.913136,0 -1.959745,-0.264831 -1.588983,-0.370763 -1.271187,0.423729 -1.483051,0.211865 -1.483051,0.370762 -2.489406,0.423729 -2.171611,0.317797 -1.959745,0.423729 -2.171611,0.211864 -1.694915,0.211864 -2.43644,0.370763 -2.118645,0.264831 -2.012711,0.529661 -2.224577,0.423728 -1.747881,0.582628 -2.330509,0.741525 -1.430084,0.476695 -1.90678,0.95339 -1.21822,0.688559 -1.483051,0.794492 -1.324153,1.059322 -0.847457,0.741525 -1.324153,1.377119 -1.324152,1.483051 -1.112289,1.48305 -0.158898,0.317797 -9.152488,0.922364"
         style="fill:none;fill-rule:evenodd;stroke:none;stroke-width:1px;stroke-linecap:butt;stroke-linejoin:miter;stroke-opacity:1" /><path
         inkscape:connector-curvature="0"
         id="path4199"
         d="m 92.584746,18.432203 0.900424,1.006356 0.741525,0.529661 0.688559,0.688559 0.741526,0.476695 0.847457,0.741526 1.165255,0.529661 0.794491,0.476695 1.006356,0.370762 0.900421,0.317797 1.32416,0.317797 0.90042,0.317796 0.79449,0.370763 0.21187,0.05297 -0.58263,4.872881 0.053,1.959746 -0.21186,2.542373 -0.3178,2.277542 -0.63559,4.025424 -0.58263,2.542373 -0.52966,3.336864 -0.1589,1.694916 -0.63559,2.648305 -0.211864,1.483051 -0.317797,1.536017 -0.317796,1.377118 -0.264831,1.218221 -0.423729,1.641949 -0.26483,2.012712 -0.423729,1.694915 -0.370763,1.694915 -0.370763,1.90678 -0.26483,1.694915 -0.264831,1.536017 -0.317796,1.588983 0.582627,0.635593 -0.900424,3.019068 -0.847457,2.224576 -0.95339,1.959746 -1.218221,0.95339 -2.330508,0.370763 -2.913136,0 -1.959745,-0.264831 -1.588983,-0.370763 -1.271187,0.423729 -1.483051,0.211865 -1.483051,0.370762 -2.489406,0.423729 -2.171611,0.317797 -1.959745,0.423729 -2.171611,0.211864 -1.694915,0.211864 -2.43644,0.370763 -2.118645,0.264831 -2.012711,0.529661 -2.224577,0.423728 -1.747881,0.582628 -2.330509,0.741525 -1.430084,0.476695 -1.90678,0.95339 -1.21822,0.688559 -1.483051,0.794492 -1.324153,1.059322 -0.847457,0.741525 -1.324153,1.377119 -1.324152,1.483051 -1.112289,1.48305 -0.158898,0.317797 -8.103813,0.847458 -8.15678,0.529661 3.125,-1.694916 3.019068,-1.747881 2.012712,-1.324152 2.17161,-1.483051 1.641949,-0.95339 3.336864,-2.065678 3.283899,-2.012712 3.125,-2.065678 2.966101,-1.90678 2.065678,-1.165254 2.171611,-1.271186 2.118644,-1.271187 2.17161,-1.21822 2.065678,-1.21822 1.588983,-0.900424 2.065678,-1.059322 1.959746,-1.059322 1.430084,-0.68856 1.853814,-1.059322 2.012712,-0.847457 1.906779,-0.847458 1.165255,-0.476695 1.271186,-0.423729 1.165254,-0.529661 1.165255,-0.582627 0.582627,-1.536017 0.794491,-1.483051 0.582627,-1.641949 0.476695,-1.800847 0.635593,-2.012712 0.158899,-1.694915 0.211864,-1.430085 0,-1.694915 0.847458,-5.243644 0.635593,-3.177966 0.635593,-2.383475 0.900424,-3.177966 0.529661,-2.17161 0.741525,-2.012712 0.635594,-2.595339 0.105932,-1.377119 0.105932,-1.324152 0.05297,-1.694916 0.370763,-1.747881 0.158898,-1.694915 0.529661,-1.218221 0.370763,-1.165254 0.476695,-0.847457 0.529661,-0.68856 0.317796,-0.476695 z"
         style="fill:none;fill-rule:evenodd;stroke:none;stroke-width:1px;stroke-linecap:butt;stroke-linejoin:miter;stroke-opacity:1" /></g><g
       id="g4237"
       style="stroke:none;stroke-opacity:1"
       transform="matrix(1.1124782,0,0,1.0400157,5.332026,-5.596889)"><path
         sodipodi:nodetypes="cccccccccccccccccccccccccccccccccccccccccccccccccccccccccccccccccccccccccccc"
         inkscape:connector-curvature="0"
         id="path4229"
         d="m 131.45891,62.323918 4.49432,-3.595459 0.52434,0.749054 0.97377,1.872635 1.12358,2.022445 1.2734,1.872634 0.82396,1.273392 0.82396,0.674148 0.59924,0.599243 1.04868,0.898865 0.82396,0.449432 0.14981,0.449432 0.29962,1.423203 0.14981,0.823959 0.97377,1.12358 0.67415,0.898865 0.89886,0.674148 1.04867,0.898865 1.3483,0.97377 0.97377,1.048675 0.82396,1.123581 0.59924,1.348297 0.22472,1.273391 0,0.97377 -0.82396,0.449432 -1.3483,0.299622 -1.72282,-0.149811 -2.02245,-0.524338 -2.02244,-0.524337 -2.47188,-0.823959 -2.17226,-0.224716 -1.94754,-0.224717 -2.69658,-0.299621 -2.99622,0.149811 -2.39697,0.07491 -3.22093,0.299622 -2.8464,0.449432 -2.99622,0.524337 -2.47188,0.599243 -1.7228,0.374517 -1.57301,0.374527 -2.6966,0.823959 -0.52434,0.224717 -11.38561,4.119795 -3.595461,1.273392 -3.595458,1.423202 -2.396973,1.198486 -3.220931,0.898865 -3.595458,1.12358 -3.370742,0.97377 -4.719039,1.273392 -1.123581,0.449432 -3.295837,0.299622 -2.471877,0.599243 -2.471878,0.674148 -3.295836,1.423202 -2.172256,1.048678 -1.722824,0.97377 -1.94754,0.97377 -2.247161,1.12358 -2.022445,0.97377 -2.846405,1.34829 -2.022445,0.97377 -2.022445,0.74906 -2.097351,0.44943 -2.022445,0.44943 -2.322067,0.0749 -2.546783,-0.22472 -2.172256,-0.74905 -1.722824,-0.89887 -1.722823,-1.19848 -1.498108,-1.4232 -0.823959,-0.89887 -0.823959,-1.04867 -0.524338,-1.27339 0.224716,-0.82395"
         style="fill:none;fill-rule:evenodd;stroke:none;stroke-width:1px;stroke-linecap:butt;stroke-linejoin:miter;stroke-opacity:1" /><path
         inkscape:connector-curvature="0"
         id="path4235"
         d="m 28.389139,99.027548 1.423202,0.749054 1.647918,0.674148 1.498108,0.37453 2.846404,0.52434 2.396973,0.14981 2.921309,-0.29963 4.719039,-1.647914 3.071121,-1.198486 5.243376,-2.696594 6.966201,-2.172256 6.9662,-2.172256 9.288267,-2.09735 7.865065,-2.621689 6.441862,-2.172256 3.89508,-1.423202 4.269607,-1.498107 5.018659,-1.423203 5.84262,-1.498107 5.24338,-0.898865 4.56923,-0.97377 5.99243,-0.97377 4.71903,-0.14981 3.22094,-0.149811 3.74527,0.449432 3.07112,0.823959 0.59924,0.07491 -2.39697,-3.445648 -1.57302,-3.07112 -1.64791,-2.846405 -1.72283,-2.471877 -1.19848,-2.097351 -0.52434,-0.599243"
         style="fill:none;fill-rule:evenodd;stroke:none;stroke-width:1px;stroke-linecap:butt;stroke-linejoin:miter;stroke-opacity:1" /><path
         sodipodi:nodetypes="ccccccccccccccccccccccccccccccccccccccccccccccccc"
         inkscape:connector-curvature="0"
         id="path4233"
         d="m 27.864801,100.37585 -0.224716,-0.823964 0.149811,-1.198486 -0.224716,-1.123581 0,-0.823959 0.0749,-0.823959 0.374527,-0.674148 0.674148,-0.299622 3.071121,0 5.842619,-0.524338 3.969986,-0.299621 2.09735,-0.449432 1.348297,-0.374527 1.797729,-0.749054 3.745269,-1.348297 3.146026,-1.123581 2.92131,-0.97377 2.322067,-0.973769 2.546783,-0.82396 1.797729,-0.599243 2.022445,-0.674148 4.793944,-1.872635 3.146026,-1.048675 2.097351,-0.674148 2.396972,-0.97377 2.022445,-0.823959 1.872635,-0.524338 4.719039,-1.872635 6.366957,-2.247161 2.996215,-1.273391 6.44187,-2.322067 3.07112,-0.674149 4.2696,-0.823959 5.24338,-0.374527 3.96999,-0.14981 3.82017,0.299621 2.17226,0.149811 1.72282,0.07491 1.573,0 1.64792,-0.524337 1.12358,-0.749054 -0.44943,-0.374527 -0.52434,-0.898865 0.0749,-1.12358 0.0749,-0.97377 -0.29962,-0.674149 -0.59925,-0.524337 -0.44943,-0.149811 3.52054,-2.92131"
         style="fill:none;fill-rule:evenodd;stroke:none;stroke-width:1px;stroke-linecap:butt;stroke-linejoin:miter;stroke-opacity:1" /><path
         inkscape:connector-curvature="0"
         id="path4203"
         d="m 27.640085,101.1998 0.224716,-0.82395 -0.224716,-0.823964 0.149811,-1.198486 -0.224716,-1.123581 0,-0.823959 0.0749,-0.823959 0.374527,-0.674148 0.674148,-0.299622 3.071121,0 5.842619,-0.524338 3.969986,-0.299621 2.09735,-0.449432 1.348297,-0.374527 1.797729,-0.749054 3.745269,-1.348297 3.146026,-1.123581 2.92131,-0.97377 2.322067,-0.973769 2.546783,-0.82396 1.797729,-0.599243 2.022445,-0.674148 4.793944,-1.872635 3.146026,-1.048675 2.097351,-0.674148 2.396972,-0.97377 2.022445,-0.823959 1.872635,-0.524338 4.719039,-1.872635 6.366957,-2.247161 2.996215,-1.273391 6.44187,-2.322067 3.07112,-0.674149 4.2696,-0.823959 5.24338,-0.374527 3.96999,-0.14981 3.82017,0.299621 2.17226,0.149811 1.72282,0.07491 1.573,0 1.64792,-0.524337 1.12358,-0.749054 -0.44943,-0.374527 -0.52434,-0.898865 0.0749,-1.12358 0.0749,-0.97377 -0.29962,-0.674149 -0.59925,-0.524337 -0.44943,-0.149811 3.59545,-2.846404 3.74527,-2.996216 0.52434,0.749054 0.97377,1.872635 1.12358,2.022445 1.2734,1.872634 0.82396,1.273392 0.82396,0.674148 0.59924,0.599243 1.04868,0.898865 0.82396,0.449432 0.14981,0.449432 0.29962,1.423203 0.14981,0.823959 0.97377,1.12358 0.67415,0.898865 0.89886,0.674148 1.04867,0.898865 1.3483,0.97377 0.97377,1.048675 0.82396,1.123581 0.59924,1.348297 0.22472,1.273391 0,0.97377 -0.82396,0.449432 -1.3483,0.299622 -1.72282,-0.149811 -2.02245,-0.524338 -2.02244,-0.524337 -2.47188,-0.823959 -2.17226,-0.224716 -1.94754,-0.224717 -2.69658,-0.299621 -2.99622,0.149811 -2.39697,0.07491 -3.22093,0.299622 -2.8464,0.449432 -2.99622,0.524337 -2.47188,0.599243 -1.7228,0.374517 -1.57301,0.374527 -2.6966,0.823959 -0.52434,0.224717 -11.38561,4.119795 -3.595461,1.273392 -3.595458,1.423202 -2.396973,1.198486 -3.220931,0.898865 -3.595458,1.12358 -3.370742,0.97377 -4.719039,1.273392 -1.123581,0.449432 -3.295837,0.299622 -2.471877,0.599243 -2.471878,0.674148 -3.295836,1.423202 -2.172256,1.048678 -1.722824,0.97377 -1.94754,0.97377 -2.247161,1.12358 -2.022445,0.97377 -2.846405,1.34829 -2.022445,0.97377 -2.022445,0.74906 -2.097351,0.44943 -2.022445,0.44943 -2.322067,0.0749 -2.546783,-0.22472 -2.172256,-0.74905 -1.722824,-0.89887 -1.722823,-1.19848 -1.498108,-1.4232 -0.823959,-0.89887 -0.823959,-1.04867 z"
         style="fill:none;fill-rule:evenodd;stroke:none;stroke-width:1px;stroke-linecap:butt;stroke-linejoin:miter;stroke-opacity:1" /></g><g
       id="g4251"
       style="stroke:none;stroke-opacity:1"
       transform="matrix(1.1101099,0,0,1.0284949,5.6878442,-4.4368875)"><path
         sodipodi:nodetypes="cccccccccccccccccccccccccccccccccccccccccccccccccccccccccccccccccc"
         inkscape:connector-curvature="0"
         id="path4243"
         d="m 11.011091,149.21415 1.273391,-0.22471 0.149811,-0.22472 0.299622,0.89887 0,0.97376 -0.149811,0.97377 -0.374527,1.3483 -0.374527,1.4232 -0.07491,0.97377 0.524337,1.12358 0.224716,0.37453 1.123581,-0.89886 1.722824,-1.49811 2.09735,-1.94754 1.872635,-1.57301 2.247161,-1.87264 2.471878,-2.17225 2.92131,-2.7715 2.546783,-2.32207 2.696593,-2.54678 2.696594,-2.24716 2.022445,-2.02245 2.396972,-2.09735 1.573013,-1.64792 3.745269,-3.37074 3.220931,-3.07112 3.295837,-2.92131 3.146026,-3.29584 2.097351,-2.09735 2.022445,-2.09735 2.771499,-2.69659 2.022445,-2.09735 2.621689,-2.6966 2.621688,-2.92131 2.696593,-2.92131 1.647919,-1.72282 3.146026,-4.194701 4.943755,-6.292052 2.471877,-3.071121 2.696594,-3.445647 2.771499,-2.996215 2.546783,-2.322067 2.322067,-2.621688 3.445647,-3.89508 0.449432,0.449432 2.996216,-3.370742 2.32207,-2.92131 1.27339,-1.797729 1.64792,-2.546783 1.79773,-2.546783 2.17226,-2.846404 1.57301,-2.322067 1.64792,-1.573013 1.87263,-2.09735 1.4232,-1.797729 1.79773,-1.273392 1.94754,-1.498108 2.24716,-1.498107 1.2734,-0.524338 1.4232,-0.823959 0.52434,-0.224716 1.94754,0.299621 1.72282,0.449433 1.57301,0.749054 1.49811,0.674148 1.12358,1.048675"
         style="fill:none;fill-rule:evenodd;stroke:none;stroke-width:1px;stroke-linecap:butt;stroke-linejoin:miter;stroke-opacity:1" /><path
         inkscape:connector-curvature="0"
         id="path4249"
         d="m 132.43271,45.095675 -2.69659,3.445648 -3.74527,4.644133 -5.24338,6.441863 c 0,0 -7.34073,7.340727 -7.93997,7.93997 -0.59924,0.599243 -5.99243,8.239592 -5.99243,8.239592 l -6.29205,7.041106 -7.190917,8.838834 -4.943755,5.093566 -5.992431,6.441863 -12.584103,12.28448 -8.539214,8.08978 -7.640348,7.34073 -7.190917,6.59167 -4.793944,3.74527 -6.591673,5.543 -6.741485,5.84262 c 0,0 -6.441862,5.69281 -7.041105,6.14224 -0.599243,0.44943 -7.79016,6.74149 -7.79016,6.74149 l -4.3445117,4.49432 -1.9475399,-3.14603 -0.1498107,-5.09356 0.4494322,-3.89508 1.4981076,-3.14603 1.0486755,-1.64792"
         style="fill:none;fill-rule:evenodd;stroke:none;stroke-width:1px;stroke-linecap:butt;stroke-linejoin:miter;stroke-opacity:1" /><path
         sodipodi:nodetypes="ccccccccccccccccccccccccccccccccccccccccccccccccccccccccccccccccccccccccccccccccccccccccccccc"
         inkscape:connector-curvature="0"
         id="path4247"
         d="m 133.40648,44.496432 1.19849,0.97377 1.19848,1.048675 0.89887,1.123581 0.52434,1.198486 0.74905,1.423202 0.44943,1.198487 0.14981,1.273391 -0.52434,2.022445 -0.82395,1.423202 -0.67415,1.79773 -1.12358,0.973769 -1.72283,1.647919 -2.39697,1.94754 -2.09735,1.872634 -0.97377,0.97377 -1.87263,1.498108 -2.02245,1.722823 -1.49811,1.273392 -3.22093,3.595458 -1.3483,1.573013 -1.64791,2.172256 -1.87264,2.172256 -1.72282,2.172256 -1.27339,1.722824 -0.89887,1.722824 -1.4232,1.872634 -1.12358,1.423202 -1.27339,1.348297 -1.04868,1.498108 -2.02244,2.09735 -1.42321,1.722824 -1.12358,1.273391 -2.097347,2.696594 -2.846404,2.996217 -1.273392,1.3483 -6.891295,7.64034 -1.273391,1.3483 -2.022445,3.14603 -3.520553,3.96998 -1.94754,1.79773 -2.771499,2.32207 -3.370742,2.8464 -3.146026,2.24716 -1.797729,1.57302 -4.044891,2.54678 -3.220931,2.24716 -2.322067,1.72282 -2.396972,1.72283 -2.92131,2.24716 -2.846404,2.24716 -2.396972,2.02245 -2.396972,2.02244 -2.471878,2.02245 -2.097351,1.79773 -1.797729,1.64791 -2.247161,1.79773 -1.872635,1.42321 -2.172256,1.79772 -2.322066,1.87264 -2.172256,1.94754 -1.797729,1.64792 -2.322067,1.57301 -2.322067,1.87263 -2.247161,1.79773 -2.396972,1.49811 -2.621689,1.72283 -2.322066,1.72282 -2.247162,1.19848 -1.6479182,0.97377 -1.4981076,0.22472 -0.8239592,-0.37453 -0.599243,-0.59924 -0.074905,-1.04867 -0.1498108,-1.19849 -0.2996215,-0.82396 -0.599243,-0.67415 -0.7490538,-0.29962 -0.5243377,-0.29962 -0.074905,-1.4232 -0.2996216,-2.02245 0.1498108,-1.87263 0.074905,-1.79773 0.2247161,-1.72283 0.8988646,-2.62168 0.7490538,-2.02245 0.8239591,-1.94754 0.8988646,-1.4232 0.9737699,-1.27339 0.7490538,-0.89887 1.2733915,-1.12358 0.7490532,-0.74905 0.97377,-0.0749"
         style="fill:none;fill-rule:evenodd;stroke:none;stroke-width:1px;stroke-linecap:butt;stroke-linejoin:miter;stroke-opacity:1" /><path
         inkscape:connector-curvature="0"
         id="path4205"
         d="m 125.54142,41.275501 1.94754,0.299621 1.72282,0.449433 1.57301,0.749054 1.49811,0.674148 1.12358,1.048675 1.19849,0.97377 1.19848,1.048675 0.89887,1.123581 0.52434,1.198486 0.74905,1.423202 0.44943,1.198487 0.14981,1.273391 -0.52434,2.022445 -0.82395,1.423202 -0.67415,1.79773 -1.12358,0.973769 -1.72283,1.647919 -2.39697,1.94754 -2.09735,1.872634 -0.97377,0.97377 -1.87263,1.498108 -2.02245,1.722823 -1.49811,1.273392 -3.22093,3.595458 -1.3483,1.573013 -1.64791,2.172256 -1.87264,2.172256 -1.72282,2.172256 -1.27339,1.722824 -0.89887,1.722824 -1.4232,1.872634 -1.12358,1.423202 -1.27339,1.348297 -1.04868,1.498108 -2.02244,2.09735 -1.42321,1.722824 -1.12358,1.273391 -2.097347,2.696594 -2.846404,2.996217 -1.273392,1.3483 -6.891295,7.64034 -1.273391,1.3483 -2.022445,3.14603 -3.520553,3.96998 -1.94754,1.79773 -2.771499,2.32207 -3.370742,2.8464 -3.146026,2.24716 -1.797729,1.57302 -4.044891,2.54678 -3.220931,2.24716 -2.322067,1.72282 -2.396972,1.72283 -2.92131,2.24716 -2.846404,2.24716 -2.396972,2.02245 -2.396972,2.02244 -2.471878,2.02245 -2.097351,1.79773 -1.797729,1.64791 -2.247161,1.79773 -1.872635,1.42321 -2.172256,1.79772 -2.322066,1.87264 -2.172256,1.94754 -1.797729,1.64792 -2.322067,1.57301 -2.322067,1.87263 -2.247161,1.79773 -2.396972,1.49811 -2.621689,1.72283 -2.322066,1.72282 -2.247162,1.19848 -1.6479182,0.97377 -1.4981076,0.22472 -0.8239592,-0.37453 -0.599243,-0.59924 -0.074905,-1.04867 -0.1498108,-1.19849 -0.2996215,-0.82396 -0.599243,-0.67415 -0.7490538,-0.29962 -0.5243377,-0.29962 -0.074905,-1.4232 -0.2996216,-2.02245 0.1498108,-1.87263 0.074905,-1.79773 0.2247161,-1.72283 0.8988646,-2.62168 0.7490538,-2.02245 0.8239591,-1.94754 0.8988646,-1.4232 0.9737699,-1.27339 0.7490538,-0.89887 1.2733915,-1.12358 0.7490532,-0.74905 0.898865,-0.14981 0.674148,-0.14981 0.149811,-0.22472 0.299622,0.89887 0,0.97376 -0.149811,0.97377 -0.374527,1.3483 -0.374527,1.4232 -0.07491,0.97377 0.524337,1.12358 0.224716,0.37453 1.123581,-0.89886 1.722824,-1.49811 2.09735,-1.94754 1.872635,-1.57301 2.247161,-1.87264 2.471878,-2.17225 2.92131,-2.7715 2.546783,-2.32207 2.696593,-2.54678 2.696594,-2.24716 2.022445,-2.02245 2.396972,-2.09735 1.573013,-1.64792 3.745269,-3.37074 3.220931,-3.07112 3.295837,-2.92131 3.146026,-3.29584 2.097351,-2.09735 2.022445,-2.09735 2.771499,-2.69659 2.022445,-2.09735 2.621689,-2.6966 2.621688,-2.92131 2.696593,-2.92131 1.647919,-1.72282 3.146026,-4.194701 4.943755,-6.292052 2.471877,-3.071121 2.696594,-3.445647 2.771499,-2.996215 2.546783,-2.322067 2.322067,-2.621688 3.445647,-3.89508 0.449432,0.449432 2.996216,-3.370742 2.32207,-2.92131 1.27339,-1.797729 1.64792,-2.546783 1.79773,-2.546783 2.17226,-2.846404 1.57301,-2.322067 1.64792,-1.573013 1.87263,-2.09735 1.4232,-1.797729 1.79773,-1.273392 1.94754,-1.498108 2.24716,-1.498107 1.2734,-0.524338 1.4232,-0.823959 z"
         style="fill:none;fill-rule:evenodd;stroke:none;stroke-width:1px;stroke-linecap:butt;stroke-linejoin:miter;stroke-opacity:1" /></g><g
       id="g4267"
       style="stroke:none;stroke-width:0.09557546;stroke-miterlimit:4;stroke-dasharray:none;stroke-opacity:1"
       transform="matrix(1.0915742,0,0,1.0152965,7.0567578,-3.1937191)"><path
         sodipodi:nodetypes="ccccccccccccccccccccccccccccccccccccccc"
         inkscape:connector-curvature="0"
         id="path4259"
         d="m 84.493283,167.34124 -1.048675,-0.89886 -1.647919,-1.19849 -1.722823,-0.82396 -1.273392,-0.89886 -1.423202,-0.74905 -1.123581,-0.82396 -1.423202,-0.89887 -0.898864,-0.59924 -1.123581,-0.74905 -1.348297,-0.97377 -1.198486,-0.89887 -0.898865,-0.74905 -0.97377,-1.19849 -1.12358,-0.97377 -0.898865,-1.27339 -0.674148,-1.12358 -0.674149,-1.57301 -0.524337,-1.42321 -0.524338,-1.87263 0.149811,-2.02245 0.449432,-1.87263 0.599243,-2.02245 0.749054,-2.09735 0.674148,-1.64791 0.82396,-1.79773 0.374526,-1.19849 0.374527,-1.3483 0.374527,-1.12358 0.224716,-0.97377 0.149796,-0.67414 0.07491,-2.8464 -0.14981,-4.79394 0.898864,-3.74527 0.599243,-3.37074 1.573013,-2.02245 2.696594,-1.27339 1.647918,-0.37453 c 0,0 4.644134,0.67415 4.943755,0.82395"
         style="fill:none;fill-rule:evenodd;stroke:none;stroke-width:0.09557546;stroke-linecap:butt;stroke-linejoin:miter;stroke-miterlimit:4;stroke-dasharray:none;stroke-opacity:1" /><path
         inkscape:connector-curvature="0"
         id="path4265"
         d="m 78.650648,113.55919 -1.348296,4.1947 -0.749054,2.99622 -0.749054,4.64413 0.449432,4.79395 0.149811,4.34451 -1.647918,5.09356 -1.348297,3.59546 -0.449432,3.14603 0.599243,5.84262 2.846404,5.69281 2.696594,3.29583 4.04489,3.14603 1.348297,1.79773"
         style="fill:none;fill-rule:evenodd;stroke:none;stroke-width:0.09557546;stroke-linecap:butt;stroke-linejoin:miter;stroke-miterlimit:4;stroke-dasharray:none;stroke-opacity:1" /><path
         sodipodi:nodetypes="cccccccccccccccccccccccccccccccccc"
         inkscape:connector-curvature="0"
         id="path4263"
         d="m 79.100085,112.3607 c 0.299622,0.14981 2.7715,1.04867 2.7715,1.04867 l 1.797729,1.12358 1.273391,1.04868 -0.449432,2.39697 0.07491,1.19849 -0.299621,1.19848 0.374527,3.89508 0.149811,3.74527 -0.07491,2.39697 -0.224716,3.22093 -0.224716,2.24717 0,2.17225 0,1.57301 -0.898865,1.79773 -1.048675,2.17226 -0.299621,2.02244 0,1.49811 0,1.19849 0.524337,2.62169 0.823959,2.47187 0.749054,2.39698 0.524338,1.4981 0.449432,1.42321 0.599243,1.4981 0.299622,1.27339 0.224716,1.2734 0.07491,0.97377 0.07491,1.19848 0,0.97377 -0.149811,0.82396 -0.599243,0.97377 -0.374527,0.22472 -0.749054,-0.59925"
         style="fill:none;fill-rule:evenodd;stroke:none;stroke-width:0.09557546;stroke-linecap:butt;stroke-linejoin:miter;stroke-miterlimit:4;stroke-dasharray:none;stroke-opacity:1" /><path
         sodipodi:nodetypes="cccccccccccccccccccccccccccccccccccccccccccccccccccccccccccccccccccccccc"
         inkscape:connector-curvature="0"
         id="path4207"
         d="m 68.912949,130.86233 0.07491,-2.8464 -0.14981,-4.79394 0.898864,-3.74527 0.599243,-3.37074 1.573013,-2.02245 2.696594,-1.27339 1.647918,-0.37453 c 0,0 2.846405,-0.0749 3.146026,0.0749 0.299622,0.14981 2.471878,0.89886 2.471878,0.89886 l 1.797729,1.12358 1.273391,1.04868 -0.449432,2.39697 0.07491,1.19849 -0.299621,1.19848 0.374527,3.89508 0.149811,3.74527 -0.07491,2.39697 -0.224716,3.22093 -0.224716,2.24717 0,2.17225 0,1.57301 -0.898865,1.79773 -1.048675,2.17226 -0.299621,2.02244 0,1.49811 0,1.19849 0.524337,2.62169 0.823959,2.47187 0.749054,2.39698 0.524338,1.4981 0.449432,1.42321 0.599243,1.4981 0.299622,1.27339 0.224716,1.2734 0.07491,0.97377 0.07491,1.19848 0,0.97377 -0.149811,0.82396 -0.599243,0.97377 -0.374527,0.22472 -0.749054,-0.59925 -1.048675,-0.89886 -1.647919,-1.19849 -1.722823,-0.82396 -1.273392,-0.89886 -1.423202,-0.74905 -1.123581,-0.82396 -1.423202,-0.89887 -0.898864,-0.59924 -1.123581,-0.74905 -1.348297,-0.97377 -1.198486,-0.89887 -0.898865,-0.74905 -0.97377,-1.19849 -1.12358,-0.97377 -0.898865,-1.27339 -0.674148,-1.12358 -0.674149,-1.57301 -0.524337,-1.42321 -0.524338,-1.87263 0.149811,-2.02245 0.449432,-1.87263 0.599243,-2.02245 0.749054,-2.09735 0.674148,-1.64791 0.82396,-1.79773 0.374526,-1.19849 0.374527,-1.3483 0.374527,-1.12358 0.224716,-0.97377 z"
         style="fill:none;fill-rule:evenodd;stroke:none;stroke-width:0.09557546;stroke-linecap:butt;stroke-linejoin:miter;stroke-miterlimit:4;stroke-dasharray:none;stroke-opacity:1" /></g><g
       id="g4283"
       style="stroke:none;stroke-opacity:1;stroke-width:0.09464468;stroke-miterlimit:4;stroke-dasharray:none"
       transform="matrix(1.0932061,0,0,1.0211876,7.6153659,-3.8653479)"><path
         sodipodi:nodetypes="cccccccccccccccccccccccccccccccccccccccccccc"
         inkscape:connector-curvature="0"
         id="path4275"
         d="m 99.474334,150.18792 1.123576,0.14981 1.04868,0.22472 0.44943,0 0.44943,-3.14603 0.22472,-3.59545 0.22472,-2.62169 0.14981,-3.14603 0.0749,-2.47188 0,-2.47187 0.22472,-3.14603 -0.14981,-4.71904 0.0749,-3.07112 -0.14981,-3.29584 -0.14981,-2.47187 -0.14981,-2.99622 -0.14981,-2.99621 -0.14981,-2.02245 -0.14981,-1.4232 -0.82396,-0.59924 -0.97377,-0.29963 -0.823959,0 -0.599243,0.37453 -0.599243,0.37453 -0.97377,0.52434 -0.898865,0.67414 -0.898864,0.29963 -1.048676,0.52433 -0.823959,0.22472 -0.599243,0 -0.674148,-0.22472 -0.224716,-0.0749 -1.123581,0.67415 -0.674148,0.37452 -0.898865,0.59925 -0.599243,0.37452 -0.599243,0.44944 -0.524338,0.59924 -0.299621,0.22471 -0.299612,0.37453 -2.247161,0 -1.348297,-1.64792 -0.898865,-1.57301 -0.224715,-3.29584"
         style="fill:none;fill-rule:evenodd;stroke:none;stroke-width:0.09464468;stroke-linecap:butt;stroke-linejoin:miter;stroke-opacity:1;stroke-miterlimit:4;stroke-dasharray:none" /><path
         inkscape:connector-curvature="0"
         id="path4281"
         d="m 83.894025,106.51809 3.445647,-1.19849 4.644134,-1.04867 4.04489,-0.74906 4.044894,-0.29962 3.74527,0.74905 1.79772,2.39698 2.39698,4.04489 0.89886,5.24337 0.89887,3.89508 0,5.24338 0.74905,6.29205 0.14981,5.24338 0.29962,8.08978 -0.44943,8.23959 0.59924,4.64413 0,7.04111 1.04868,7.04111 0.29962,2.24716 -1.94754,-4.34452 -1.94754,-4.49432 -3.59546,-5.39319 -1.94754,-3.44564 -1.79773,-3.14603"
         style="fill:none;fill-rule:evenodd;stroke:none;stroke-width:0.09464468;stroke-linecap:butt;stroke-linejoin:miter;stroke-opacity:1;stroke-miterlimit:4;stroke-dasharray:none" /><path
         sodipodi:nodetypes="ccccccccccccccccccccccccccccccccccccccccccccccccccccccccccccccccccccccccccccc"
         inkscape:connector-curvature="0"
         id="path4279"
         d="m 82.620634,106.81771 0,-3.22093 1.273391,-1.94754 1.348297,-1.19849 2.396972,-0.674148 2.247161,-0.449432 3.445648,-0.224716 2.621688,0 2.022445,-0.149811 2.396974,0.224716 1.72282,0.374527 1.19849,0.374527 1.12358,0.599247 1.19849,0.82396 1.12358,0.82395 0.82395,0.67415 0.89887,0.97377 0.89886,0.89887 0.82396,1.19848 0.97377,1.12358 0.67415,1.19849 0.74906,1.04868 0.82395,1.34829 0.89887,1.4232 0.59924,1.04868 0.82396,1.19849 0.89887,1.04867 0.37452,0.89887 0.74906,1.64791 0.52433,1.72283 0.74906,2.09735 0.37452,1.57301 0.67415,2.39697 0,1.94754 0.29962,2.02245 0.22472,1.94754 -0.0749,2.09735 0,1.4232 0.0749,2.39697 -0.29962,2.99622 -0.14981,2.7715 -0.22472,2.92131 -0.0749,1.79773 0,1.79773 -0.22472,1.87263 0.0749,2.62169 0,2.02244 0.0749,2.17226 -0.52434,1.4232 -0.59924,1.87264 -0.14981,2.39697 -0.0749,2.39697 0.29963,2.09735 0.37452,2.54678 0,1.57302 0.0749,1.4981 -0.14981,1.57302 -0.44943,1.79773 -0.59925,1.4232 -0.59924,1.04867 -0.59924,0.82396 -1.27339,-0.44943 -1.3483,-0.67415 -1.64792,-0.82396 -0.97377,-0.89886 -1.27339,-1.19849 -1.04868,-1.12358 -1.04867,-1.49811 -0.82396,-1.27339 -1.12358,-1.87263 -0.74906,-1.94754 -1.04867,-1.94754 -0.74905,-1.79773 -1.19849,-2.39697 -0.89887,-1.79773 -0.37452,-1.19849 -1.722826,-9.88751"
         style="fill:none;fill-rule:evenodd;stroke:none;stroke-width:0.09464468;stroke-linecap:butt;stroke-linejoin:miter;stroke-opacity:1;stroke-miterlimit:4;stroke-dasharray:none" /><path
         inkscape:connector-curvature="0"
         id="path4209"
         d="m 87.489483,112.43561 -2.247161,0 -1.348297,-1.64792 -0.898865,-1.57301 -0.374526,-3.44565 0,-2.17225 1.273391,-1.94754 1.348297,-1.19849 2.396972,-0.674148 2.247161,-0.449432 3.445648,-0.224716 2.621688,0 2.022445,-0.149811 2.396974,0.224716 1.72282,0.374527 1.19849,0.374527 1.12358,0.599247 1.19849,0.82396 1.12358,0.82395 0.82395,0.67415 0.89887,0.97377 0.89886,0.89887 0.82396,1.19848 0.97377,1.12358 0.67415,1.19849 0.74906,1.04868 0.82395,1.34829 0.89887,1.4232 0.59924,1.04868 0.82396,1.19849 0.89887,1.04867 0.37452,0.89887 0.74906,1.64791 0.52433,1.72283 0.74906,2.09735 0.37452,1.57301 0.67415,2.39697 0,1.94754 0.29962,2.02245 0.22472,1.94754 -0.0749,2.09735 0,1.4232 0.0749,2.39697 -0.29962,2.99622 -0.14981,2.7715 -0.22472,2.92131 -0.0749,1.79773 0,1.79773 -0.22472,1.87263 0.0749,2.62169 0,2.02244 0.0749,2.17226 -0.52434,1.4232 -0.59924,1.87264 -0.14981,2.39697 -0.0749,2.39697 0.29963,2.09735 0.37452,2.54678 0,1.57302 0.0749,1.4981 -0.14981,1.57302 -0.44943,1.79773 -0.59925,1.4232 -0.59924,1.04867 -0.59924,0.82396 -1.27339,-0.44943 -1.3483,-0.67415 -1.64792,-0.82396 -0.97377,-0.89886 -1.27339,-1.19849 -1.04868,-1.12358 -1.04867,-1.49811 -0.82396,-1.27339 -1.12358,-1.87263 -0.74906,-1.94754 -1.04867,-1.94754 -0.74905,-1.79773 -1.19849,-2.39697 -0.89887,-1.79773 -0.37452,-1.19849 -1.722826,-9.88751 1.123576,0.14981 1.04868,0.22472 0.44943,0 0.44943,-3.14603 0.22472,-3.59545 0.22472,-2.62169 0.14981,-3.14603 0.0749,-2.47188 0,-2.47187 0.22472,-3.14603 -0.14981,-4.71904 0.0749,-3.07112 -0.14981,-3.29584 -0.14981,-2.47187 -0.14981,-2.99622 -0.14981,-2.99621 -0.14981,-2.02245 -0.14981,-1.4232 -0.82396,-0.59924 -0.97377,-0.29963 -0.823959,0 -0.599243,0.37453 -0.599243,0.37453 -0.97377,0.52434 -0.898865,0.67414 -0.898864,0.29963 -1.048676,0.52433 -0.823959,0.22472 -0.599243,0 -0.674148,-0.22472 -0.224716,-0.0749 -1.123581,0.67415 -0.674148,0.37452 -0.898865,0.59925 -0.599243,0.37452 -0.599243,0.44944 -0.524338,0.59924 -0.299621,0.22471 z"
         style="fill:none;fill-rule:evenodd;stroke:none;stroke-width:0.09464468;stroke-linecap:butt;stroke-linejoin:miter;stroke-opacity:1;stroke-miterlimit:4;stroke-dasharray:none" /></g><g
       id="g4297"
       style="stroke:none;stroke-opacity:1"
       transform="matrix(1.1002122,0,0,1.0761666,6.6015931,-11.256907)"><path
         sodipodi:nodetypes="cccccccccccccccccccccccccccc"
         inkscape:connector-curvature="0"
         id="path4293"
         d="m 84.343458,130.78743 0.14981,2.02244 -0.374527,2.6966 0.149811,1.64792 0,1.4981 0,0.52434 1.123581,-0.37453 0.599243,-0.14981 0.97377,0 1.198486,0 0.898864,-0.29962 0.524338,-0.29962 -0.374527,-0.67415 -0.299622,-0.52433 -0.07491,-0.59925 0.374527,-0.52434 0.823959,-0.52433 0.97377,-0.29962 1.123581,-0.22472 0.524337,-0.37453 0.524338,-0.59924 0.898865,-0.29962 1.797729,0.14981 1.423202,0 1.872634,0 1.123583,-0.22472 0.82396,-0.74905 0.0749,-0.59924"
         style="fill:none;fill-rule:evenodd;stroke:none;stroke-width:1px;stroke-linecap:butt;stroke-linejoin:miter;stroke-opacity:1" /><path
         inkscape:connector-curvature="0"
         id="path4295"
         d="m 85.242322,131.23686 2.396972,0 2.696594,0.29962 2.846404,-0.14981 2.247161,0 1.647919,0.14981 1.647918,0.29962 1.198486,0.14982 0.449434,0.29962"
         style="fill:none;fill-rule:evenodd;stroke:none;stroke-width:1px;stroke-linecap:butt;stroke-linejoin:miter;stroke-opacity:1" /><path
         sodipodi:nodetypes="ccccccccccccccccccccccccc"
         inkscape:connector-curvature="0"
         id="path4289"
         d="m 101.19716,131.98592 -0.52434,-1.2734 -0.37453,-0.74905 -1.198488,-1.04868 -1.647918,-0.82395 -1.722824,-0.59925 -1.498108,-0.59924 -1.423202,-0.59924 -0.898864,-0.52434 -0.97377,-0.67415 -0.524338,-0.29962 -0.299622,-0.29962 -1.12358,0.22471 -0.97377,0 -0.749054,-0.22471 -0.599243,-0.52434 -0.449432,-0.82396 -0.524338,-0.89886 -0.524338,-0.52434 -0.374526,-0.59924 -0.524323,-0.14982 0,2.47188 0.374527,2.99622 0,2.09735 -0.14981,2.39697"
         style="fill:none;fill-rule:evenodd;stroke:none;stroke-width:1px;stroke-linecap:butt;stroke-linejoin:miter;stroke-opacity:1" /><path
         inkscape:connector-curvature="0"
         id="path4211"
         d="m 84.268552,120.97482 0,2.47188 0.374527,2.99622 0,2.09735 0.149811,2.39697 -0.299622,1.87263 -0.374527,2.6966 0.149811,1.64792 0,1.4981 0,0.52434 1.123581,-0.37453 0.599243,-0.14981 0.97377,0 1.198486,0 0.898864,-0.29962 0.524338,-0.29962 -0.374527,-0.67415 -0.299622,-0.52433 -0.07491,-0.59925 0.374527,-0.52434 0.823959,-0.52433 0.97377,-0.29962 1.123581,-0.22472 0.524337,-0.37453 0.524338,-0.59924 0.898865,-0.29962 1.797729,0.14981 1.423202,0 1.872634,0 1.123583,-0.22472 0.82396,-0.74905 0.0749,-0.59924 -0.52434,-1.2734 -0.37453,-0.74905 -1.198488,-1.04868 -1.647918,-0.82395 -1.722824,-0.59925 -1.498108,-0.59924 -1.423202,-0.59924 -0.898864,-0.52434 -0.97377,-0.67415 -0.524338,-0.29962 -0.299622,-0.29962 -1.12358,0.22471 -0.97377,0 -0.749054,-0.22471 -0.599243,-0.52434 -0.449432,-0.82396 -0.524338,-0.89886 -0.524338,-0.52434 -0.374526,-0.59924 z"
         style="fill:none;fill-rule:evenodd;stroke:none;stroke-width:1px;stroke-linecap:butt;stroke-linejoin:miter;stroke-opacity:1" /></g><g
       id="g4311"
       style="stroke:none;stroke-width:0.09551339;stroke-miterlimit:4;stroke-dasharray:none;stroke-opacity:1"
       transform="matrix(1.1456766,0,0,1.0337961,2.6056521,-5.8436097)"><path
         sodipodi:nodetypes="ccccccccccccccccccccccccccccc"
         inkscape:connector-curvature="0"
         id="path4307"
         d="m 83.369687,153.33395 0.82396,2.24716 0.449432,1.72282 0.823959,2.02245 0.599243,2.02244 0.374527,0.82396 0.299621,-1.12358 0.449433,-0.52433 0.749053,-0.59925 0.524338,0 0.749054,-0.22471 1.423202,-0.37453 0.898865,-0.22472 1.12358,-0.29962 0.97377,0 0.898865,0.0749 0.449432,0.14981 0.599243,-0.37453 0.97377,-0.0749 1.048675,0.44943 0.82396,0.29962 0.97377,0.37453 0.823961,0.37452 0.52434,0.22472 0.22471,0 0.29962,0 -0.22471,-1.4232 -0.29962,-1.87264 -0.14982,-1.64792"
         style="fill:none;fill-rule:evenodd;stroke:none;stroke-width:0.09551339;stroke-linecap:butt;stroke-linejoin:miter;stroke-miterlimit:4;stroke-dasharray:none;stroke-opacity:1" /><path
         inkscape:connector-curvature="0"
         id="path4309"
         d="m 83.894025,153.85829 2.247161,0.14981 2.996216,0.14981 3.146025,0 3.295837,0 2.696594,0 0.599243,0.59924 0.599243,0.14981 0.149811,0"
         style="fill:none;fill-rule:evenodd;stroke:none;stroke-width:0.09551339;stroke-linecap:butt;stroke-linejoin:miter;stroke-miterlimit:4;stroke-dasharray:none;stroke-opacity:1" /><path
         sodipodi:nodetypes="ccccccccccccccccccccccccc"
         inkscape:connector-curvature="0"
         id="path4303"
         d="m 100.59792,155.35638 -0.52433,-1.64791 -0.299625,-1.3483 -0.299621,-1.87264 -0.374527,-0.74905 -0.898865,-0.29962 -1.12358,-0.67415 -1.048676,-0.59924 -1.198486,-0.59925 -1.273391,-0.37452 -0.823959,0 -0.674149,0.0749 -1.198486,0.37453 -0.749054,0.29962 -0.14981,-0.44943 0,-0.14981 -1.423202,0.14981 -1.198487,0 -1.498107,0 -1.273392,0 -1.348296,0.0749 -1.123581,0.22473 0.299621,1.87264 0.449433,2.39697 1.12358,3.07112"
         style="fill:none;fill-rule:evenodd;stroke:none;stroke-width:0.09551339;stroke-linecap:butt;stroke-linejoin:miter;stroke-miterlimit:4;stroke-dasharray:none;stroke-opacity:1" /><path
         inkscape:connector-curvature="0"
         id="path4213"
         d="m 82.096296,147.79095 0.299621,1.87264 0.449433,2.39697 0.524337,1.57301 0.82396,1.94754 0.449432,1.72282 0.823959,2.02245 0.599243,2.02244 0.374527,0.82396 0.299621,-1.12358 0.449433,-0.52433 0.749053,-0.59925 0.524338,0 0.749054,-0.22471 1.423202,-0.37453 0.898865,-0.22472 1.12358,-0.29962 0.97377,0 0.898865,0.0749 0.449432,0.14981 0.599243,-0.37453 0.97377,-0.0749 1.048675,0.44943 0.82396,0.29962 0.97377,0.37453 0.823961,0.37452 0.52434,0.22472 0.22471,0 0.29962,0 -0.22471,-1.4232 -0.29962,-1.87264 -0.14982,-1.64792 -0.52433,-1.64791 -0.299625,-1.3483 -0.299621,-1.87264 -0.374527,-0.74905 -0.898865,-0.29962 -1.12358,-0.67415 -1.048676,-0.59924 -1.198486,-0.59925 -1.273391,-0.37452 -0.823959,0 -0.674149,0.0749 -1.198486,0.37453 -0.749054,0.29962 -0.14981,-0.44943 0,-0.14981 -1.423202,0.14981 -1.198487,0 -1.498107,0 -1.273392,0 -1.348296,0.0749 z"
         style="fill:none;fill-rule:evenodd;stroke:none;stroke-width:0.09551339;stroke-linecap:butt;stroke-linejoin:miter;stroke-miterlimit:4;stroke-dasharray:none;stroke-opacity:1" /></g></g></svg>