<?xml version="1.0" encoding="UTF-8" standalone="no"?>
<!-- Generator: Adobe Illustrator 16.0.0, SVG Export Plug-In . SVG Version: 6.00 Build 0)  -->

<svg
   xmlns:dc="http://purl.org/dc/elements/1.1/"
   xmlns:cc="http://creativecommons.org/ns#"
   xmlns:rdf="http://www.w3.org/1999/02/22-rdf-syntax-ns#"
   xmlns:svg="http://www.w3.org/2000/svg"
   xmlns="http://www.w3.org/2000/svg"
   xmlns:sodipodi="http://sodipodi.sourceforge.net/DTD/sodipodi-0.dtd"
   xmlns:inkscape="http://www.inkscape.org/namespaces/inkscape"
   version="1.1"
   id="图层_1"
   x="0px"
   y="0px"
   width="200px"
   height="200px"
   viewBox="0 0 200 200"
   enable-background="new 0 0 200 200"
   xml:space="preserve"
   inkscape:version="0.91 r13725"
   sodipodi:docname="者.svg"><metadata
     id="metadata17"><rdf:RDF><cc:Work
         rdf:about=""><dc:format>image/svg+xml</dc:format><dc:type
           rdf:resource="http://purl.org/dc/dcmitype/StillImage" /><dc:title /></cc:Work></rdf:RDF></metadata><defs
     id="defs15" /><sodipodi:namedview
     pagecolor="#ffffff"
     bordercolor="#666666"
     borderopacity="1"
     objecttolerance="10"
     gridtolerance="10"
     guidetolerance="10"
     inkscape:pageopacity="0"
     inkscape:pageshadow="2"
     inkscape:window-width="1280"
     inkscape:window-height="756"
     id="namedview13"
     showgrid="false"
     inkscape:zoom="4.72"
     inkscape:cx="91.168393"
     inkscape:cy="133.63028"
     inkscape:window-x="7"
     inkscape:window-y="50"
     inkscape:window-maximized="0"
     inkscape:current-layer="stroke_group" /><g
     id="g3" /><path
     id="path11"
     style="fill:none;stroke:#fd0018;stroke-width:1.5;stroke-miterlimit:10;stroke-dasharray:none;stroke-opacity:1"
     d="M 90.406,78.578 C 77.469,83.493 64.02,88.151 50.828,92.809 59.367,79.604 77.727,82.172 90.406,78.578 l 0,0 z m 18.104,28.464 c 0.77,13.974 1.539,28.976 -0.551,43.465 -4.91,0 -6.705,-5.429 -11.873,-2.568 l 0,-0.513 -8.025,0 c -0.513,-3.118 1.283,-5.723 2.346,-8.032 2.052,-1.541 3.077,0 5.167,-1.285 -2.603,-3.117 2.565,-2.604 3.591,-4.4 2.603,-0.515 6.23,1.026 8.025,-1.321 -1.282,-5.686 -7.732,-4.658 -11.104,-7.995 -3.372,1.283 -3.885,-2.093 -5.68,-3.633 -0.257,-5.941 3.334,-9.829 8.245,-11.921 3.885,1.32 6.487,-4.916 9.859,-1.797 l 0,0 z m 16.782,-74.021 c -7.475,1.797 -15.243,8.546 -18.615,14.489 l -4.398,22.265 1.284,1.283 c 9.308,-10.086 14.512,-24.318 27.961,-29.747 5.166,0.256 10.077,3.851 12.386,8.509 1.832,3.118 -0.513,6.235 -1.796,8.803 1.796,3.632 4.141,8.546 8.025,10.637 -0.256,5.942 8.759,6.2 7.989,12.912 -2.821,1.577 -7.22,-0.257 -10.59,-1.284 -10.335,-1.797 -20.706,0.257 -29.721,3.118 l -12.423,15.003 c 9.308,0.77 12.423,10.086 17.333,16.578 6.963,14.489 2.31,26.373 3.079,42.953 -3.885,7.776 2.602,15.259 -3.079,22.265 -8.538,-2.091 -11.909,-12.948 -15.538,-20.467 -2.309,0 -4.58,-2.898 -6.412,-1.321 -1.979,-1.064 -4.435,0.807 -6.524,0.807 -3.847,1.577 -0.255,6.236 -3.078,8.033 -7.512,-6.199 -19.678,-9.573 -21.217,-20.431 0.256,-6.492 4.397,-11.151 4.911,-17.35 -20.412,11.884 -38.771,33.379 -59.99,45.3 -5.167,1.283 -1.283,-4.402 -5.167,-4.915 -1.796,-7.264 0.77,-16.323 6.999,-21.237 0.513,0 1.283,0.256 1.796,-0.514 1.026,3.117 -1.796,5.428 0,8.033 21.218,-18.635 44.745,-39.615 62.042,-59.789 -15.758,-0.514 -34.374,24.062 -47.053,4.402 0.77,-2.092 -0.77,-4.402 0.513,-6.75 17.59,-10.087 34.154,-22.521 52.771,-29.748 2.052,-4.145 3.371,-8.803 3.628,-13.718 -5.974,-3.631 -11.141,-3.631 -16.564,-8.803 8.025,-0.513 17.077,-2.861 20.962,-9.83 1.282,-3.375 -0.294,-10.638 3.848,-14.232 6.741,8.804 20.19,4.659 26.638,14.746 l 0,0 z m 11.142,36.239 c -1.832,2.055 -5.461,0.771 -8.025,1.027 l 6.193,-5.429 c 1.832,0.258 0.512,3.082 1.832,4.402 l 0,0 z"
     inkscape:connector-curvature="0" /><g
     inkscape:groupmode="layer"
     id="stroke_group"
     inkscape:label="Layer 1"><g
       id="g8104"
       transform="translate(-15.198486,-0.50189241)"
       style="stroke:none"><path
         style="fill:none;fill-rule:evenodd;stroke:none;stroke-width:1px;stroke-linecap:butt;stroke-linejoin:miter;stroke-opacity:1"
         d="m 139.51271,32.944915 -4.13136,1.588983 -5.72033,3.813559 -4.97882,5.190678 -2.9661,3.177966 -4.76695,3.177966 -4.76695,1.377119 -5.50847,0 -6.779662,-2.966102 -4.661017,-2.118644 -2.966102,-1.588983 -1.48305,-1.377119"
         id="path4176"
         inkscape:connector-curvature="0" /><path
         style="fill:none;fill-rule:evenodd;stroke:none;stroke-width:1px;stroke-linecap:butt;stroke-linejoin:miter;stroke-opacity:1"
         d="m 95.93644,45.021186 6.56779,0.741525 6.03814,-0.953389 4.55508,-2.224577 2.86017,-2.966101 5.82627,-4.555085 3.91949,-2.648305 4.34322,-0.741526 4.55509,0.211865"
         id="path4172"
         inkscape:connector-curvature="0"
         sodipodi:nodetypes="ccccccccc" /><path
         style="fill:none;fill-rule:evenodd;stroke:none;stroke-width:1px;stroke-linecap:butt;stroke-linejoin:miter;stroke-opacity:1"
         d="m 90.783899,43.220338 3.177966,0.317797 3.38983,-0.847458 4.449155,-1.48305 4.76695,-2.542373 2.6483,-2.118644 1.90678,-3.389831 2.75424,-3.072034 3.60169,-2.43644 3.81356,-1.588983 3.07204,-0.211865 5.50847,1.271187 5.40254,2.330508 3.07204,2.436441 1.16525,1.059322"
         id="path4180"
         inkscape:connector-curvature="0" /><path
         style="fill:none;fill-rule:evenodd;stroke:none;stroke-width:1px;stroke-linecap:butt;stroke-linejoin:miter;stroke-opacity:1"
         d="m 90.851695,43.220338 3.177966,0.317797 3.38983,-0.847458 4.449149,-1.48305 4.76695,-2.542373 2.6483,-2.118644 1.90678,-3.389831 2.75424,-3.072034 3.60169,-2.43644 3.81356,-1.588983 3.07204,-0.211865 5.50847,1.271187 5.40254,2.330508 3.07204,2.436441 1.16525,1.059322 -4.13136,1.588983 -5.72033,3.813559 -4.97882,5.190678 -2.9661,3.177966 -4.76695,3.177966 -4.76694,1.377119 -5.50848,0 -6.779657,-2.966102 -4.661016,-2.118644 -2.966102,-1.588983 z"
         id="path4170"
         inkscape:connector-curvature="0"
         sodipodi:nodetypes="cccccccccccccccccccccccccc" /></g><g
       id="g8133"
       transform="translate(-14,0)"
       style="fill:none;stroke:none"><path
         sodipodi:nodetypes="cccccccccccccccccccccccccccccccccc"
         inkscape:connector-curvature="0"
         id="path8129"
         d="m 56.330229,94.279661 -7.558828,0.01506 7.160802,-3.828616 5.508475,-2.966102 4.237288,-2.966102 4.661017,-2.754237 4.449153,-2.542373 2.118644,-1.694915 3.177966,-2.118644 3.813559,-1.694915 4.872881,-2.754238 3.81356,-1.906779 3.601695,-1.271187 1.694915,-0.847457 L 100,65.889831 l 1.48305,-0.423729 1.90678,-4.449153 0.84746,-1.90678 0.63559,-3.601694 0,-1.90678 0,-1.694915 0.42373,-1.059322 4.02542,-18.432204 1.05933,-4.661017 -0.21187,-1.271186 0,-1.90678 0,-1.694915 0.84746,-1.694915 0.63559,-1.271187 0.84746,-0.635593 2.33051,1.90678 1.05932,0.847457 1.27119,0.635594 1.35894,0.935215"
         style="fill:none;fill-rule:evenodd;stroke:none;stroke-width:0.30000001;stroke-linecap:butt;stroke-linejoin:miter;stroke-miterlimit:4;stroke-dasharray:none;stroke-opacity:1" /><path
         inkscape:connector-curvature="0"
         id="path8131"
         d="m 116.25315,23.223305 -0.29962,3.595458 -0.29962,2.396972 -0.59925,4.194701 -0.89886,3.89508 0,2.696594 0,3.895079 -0.59924,2.996216 -0.29963,3.295836 -0.89886,3.295837 -0.29962,3.595458 -1.19849,2.396972 0,2.097351 -0.59924,3.295837 -0.59924,3.895079 -0.89887,2.996216 -0.59924,0.299621 -3.89508,0 -1.79773,0.299622 -1.79773,0.299621 -1.498108,0.299622 -2.09735,0.299621 -1.498108,0.299622 -1.797729,0.299621 -1.498108,0.599243 -2.396972,0.898865 -2.09735,0.599243 -2.396973,0.599243 -2.396972,0.898864 -2.996215,1.198486 -2.09735,1.198487 -2.097351,0.898864 -2.996215,1.797729 -2.396972,1.797729 -1.498108,0.599243 -1.797729,0.599243 -1.797729,1.498108 -1.198486,0.898865 -1.797729,0.599243 -2.696594,1.198486 -0.299622,1.198486 -1.797729,0.898864 -0.299621,0.599243 -0.898865,0.898865"
         style="fill:none;fill-rule:evenodd;stroke:none;stroke-width:0.30000001;stroke-linecap:butt;stroke-linejoin:miter;stroke-miterlimit:4;stroke-dasharray:none;stroke-opacity:1"
         sodipodi:nodetypes="cccccccccccccccccccccccccccccccccccccccccccc" /><path
         sodipodi:nodetypes="ccccccccccccccccccccccccccccccccccccc"
         inkscape:connector-curvature="0"
         id="path8122"
         d="m 118.51996,23.604707 0.97157,0.124107 1.05932,0.423728 1.27118,0.423729 1.27119,0.635593 -2.9661,21.822034 -1.05932,4.449153 0,1.694915 -0.21187,1.694915 -0.84746,1.90678 -0.63559,5.29661 -0.42373,2.118644 -0.84746,1.90678 0,2.330508 0,1.694916 0.6356,1.694915 -1.27119,2.754237 -1.69491,2.754237 -1.05933,1.059323 -2.11864,0.211864 -1.69491,0.211864 -1.90678,0 -1.27119,0.211865 -0.84746,0.211864 -0.42373,-1.483051 -4.02542,0.847458 -4.661018,0.635593 -1.271187,0.211865 -5.29661,0.847457 -6.355932,1.271187 -4.449152,1.059322 -3.81356,1.48305 -3.177966,1.483051 -1.90678,1.271187 -2.966101,2.330508 -3.017509,4.040481 -7.444075,1.02609"
         style="fill:none;fill-rule:evenodd;stroke:none;stroke-width:0.30000001;stroke-linecap:butt;stroke-linejoin:miter;stroke-miterlimit:4;stroke-dasharray:none;stroke-opacity:1" /><path
         sodipodi:nodetypes="cccccccccccccccccccccccccccccccccccccccccccccccccccccccccccccccccccccc"
         inkscape:connector-curvature="0"
         id="path8112"
         d="M 48.771401,94.294718 55.932203,90.466102 61.440678,87.5 l 4.237288,-2.966102 4.661017,-2.754237 4.449153,-2.542373 2.118644,-1.694915 3.177966,-2.118644 3.813559,-1.694915 4.872881,-2.754238 3.81356,-1.906779 3.601695,-1.271187 1.694915,-0.847457 L 100,65.889831 l 1.48305,-0.423729 1.90678,-4.449153 0.84746,-1.90678 0.63559,-3.601694 0,-1.90678 0,-1.694915 0.42373,-1.059322 4.02542,-18.432204 1.05933,-4.661017 -0.21187,-1.271186 0,-1.90678 0,-1.694915 0.84746,-1.694915 0.63559,-1.271187 0.84746,-0.635593 2.33051,1.90678 1.05932,0.847457 1.27119,0.635594 1.05932,0.635593 1.27119,0.423729 1.05932,0.423728 1.27118,0.423729 1.27119,0.635593 -2.9661,21.822034 -1.05932,4.449153 0,1.694915 -0.21187,1.694915 -0.84746,1.90678 -0.63559,5.29661 -0.42373,2.118644 -0.84746,1.90678 0,2.330508 0,1.694916 0.6356,1.694915 -1.27119,2.754237 -1.69491,2.754237 -1.05933,1.059323 -2.11864,0.211864 -1.69491,0.211864 -1.90678,0 -1.27119,0.211865 -0.84746,0.211864 -0.42373,-1.483051 -4.02542,0.847458 -4.661018,0.635593 -1.271187,0.211865 -5.29661,0.847457 -6.355932,1.271187 -4.449152,1.059322 -3.81356,1.48305 -3.177966,1.483051 -1.90678,1.271187 -2.966101,2.330508 -3.017509,4.040481 -8.642562,1.044265 z"
         style="fill:none;fill-rule:evenodd;stroke:none;stroke-width:0.30000001;stroke-linecap:butt;stroke-linejoin:miter;stroke-miterlimit:4;stroke-dasharray:none;stroke-opacity:1" /></g><g
       id="g8121"
       style="fill:none;stroke:none"><path
         sodipodi:nodetypes="ccccccccccccccccccccccccccccccccccccccccccccccccccccccccccccccccc"
         inkscape:connector-curvature="0"
         id="path8117"
         d="m 136.4776,59.028076 7.49055,-7.79016 -1.04869,4.344513 -1.64791,3.295835 1.49811,3.445649 3.59545,4.494322 1.64792,1.198486 0.74905,1.048676 0.59925,0.449432 0.44943,2.247161 1.49811,1.498108 1.4981,1.797729 1.94754,1.048675 1.79773,2.247162 0.59925,0.898864 0.44943,1.647918 0,1.048676 -2.39697,0.299621 -1.3483,-0.299621 -1.79773,-0.449432 -2.09735,-0.599244 -2.39697,-0.449432 -2.54679,-0.599243 -4.49432,-0.299621 -3.29583,0 -3.44565,0.14981 -4.49432,0.599243 -2.99622,0.749054 -2.24716,0.599243 -3.29584,1.048676 -2.39697,0.449432 -1.3483,0.599243 -7.49054,3.745269 -5.24338,1.947539 -5.243368,1.947541 -5.542998,1.498107 -3.595459,1.498108 -5.243376,1.198486 -2.846405,0.749054 -1.797729,0 -1.647918,0 -3.745269,0.749053 -2.846404,0.898865 -2.396973,1.048675 -2.846404,1.198482 -1.647918,0.89887 -2.097351,1.04867 -2.097351,1.04868 -2.546782,1.3483 -1.94754,1.04867 -1.797729,0.74906 -2.396973,0.74905 -2.09735,0.74905 -1.797729,0.29962 -1.198486,0.29963 -2.247162,-0.14981 -1.647918,-0.14982 -2.546783,-0.59924 -1.797729,-1.19848 -1.797729,-1.19849 -0.898865,-1.04868 -1.048675,-1.34829 -0.749054,-1.3483 -0.299621,-0.29962 0.449432,-1.79773"
         style="fill:none;fill-rule:evenodd;stroke:none;stroke-width:0.30000001;stroke-linecap:butt;stroke-linejoin:miter;stroke-miterlimit:4;stroke-dasharray:none;stroke-opacity:1" /><path
         inkscape:connector-curvature="0"
         id="path8119"
         d="m 35.355339,100.82528 2.396973,0.29962 2.396971,0.59924 1.947541,0.89887 1.797729,0.74906 2.247161,-0.89887 1.048675,0 1.94754,-0.74906 1.498108,-0.59924 3.295836,-0.89887 2.396972,-0.599239 3.146026,-1.048675 2.097351,-1.048675 3.295837,-0.898865 5.393187,-1.498107 2.396972,-0.449433 2.996215,-1.198486 3.146026,-0.599243 3.445648,-1.048675 6.891295,-1.94754 19.175778,-6.891295 12.28448,-3.595458 13.48297,-2.996215 5.39319,-0.149811 2.99621,-0.149811 5.543,0.449432 9.13846,4.494324 -12.73392,-7.79016 -0.89886,-4.494323 -0.89887,-1.498108 -1.19848,-2.846404 -0.29962,-1.048676 -2.09736,-1.797728 0.89887,-4.943756"
         style="fill:none;fill-rule:evenodd;stroke:#000000;stroke-width:0.30000001;stroke-linecap:butt;stroke-linejoin:miter;stroke-miterlimit:4;stroke-dasharray:none;stroke-opacity:1"
         sodipodi:nodetypes="cccccccccccccccccccccccccccccccccc" /><path
         sodipodi:nodetypes="ccccccccccccccccccccccccccccccccccccccccccccccccccc"
         inkscape:connector-curvature="0"
         id="path8113"
         d="m 34.306664,99.32717 -0.449432,-1.198486 0,-0.898865 0,-0.749054 0,-0.599243 0.14981,-0.599243 0.149811,-0.449432 0.149811,0 0.599243,-0.449432 6.591673,0.149811 2.396972,-0.749054 4.494323,-0.449432 1.348297,-0.149811 -0.449432,0.749054 3.445647,-0.898865 3.146026,-1.198486 2.696594,-1.048675 3.295837,-1.198486 2.546782,-0.599244 2.546783,-1.048675 2.546783,-0.898864 3.295837,-1.198486 3.89508,-1.498108 2.396972,-0.599243 2.996215,-1.348297 2.396972,-0.898864 2.996215,-1.348297 2.247162,-0.749054 0.599243,-0.149811 9.737692,-2.846404 7.04111,-2.247162 3.29584,-0.749053 2.8464,-0.449433 3.14603,-0.599243 4.79394,-0.599243 3.89508,-0.299621 2.39698,-0.299622 2.09735,-0.149811 2.24716,-0.299621 2.24716,0 2.09735,-0.149811 0.14981,0 1.04868,-1.198486 0,-0.299621 -0.44944,-0.599244 -0.14981,-0.599243 -0.29962,-1.048675 -0.14981,-1.048675 -0.29962,-1.198486 -2.54679,-1.048675 4.79395,-6.591674"
         style="fill:none;fill-rule:evenodd;stroke:none;stroke-width:0.30000001;stroke-linecap:butt;stroke-linejoin:miter;stroke-miterlimit:4;stroke-dasharray:none;stroke-opacity:1" /><path
         inkscape:connector-curvature="0"
         id="path8111"
         d="m 34.905907,94.383415 6.591673,0.149811 2.396972,-0.749054 4.494323,-0.449432 1.348297,-0.149811 -0.449432,0.749054 3.445647,-0.898865 3.146026,-1.198486 2.696594,-1.048675 3.295837,-1.198486 2.546782,-0.599244 2.546783,-1.048675 2.546783,-0.898864 3.295837,-1.198486 3.89508,-1.498108 2.396972,-0.599243 2.996215,-1.348297 2.396972,-0.898864 2.996215,-1.348297 2.247162,-0.749054 0.599243,-0.149811 13.183342,-4.04489 3.59546,-1.048676 3.29584,-0.749053 2.8464,-0.449433 3.14603,-0.599243 4.79394,-0.599243 3.89508,-0.299621 2.39698,-0.299622 2.09735,-0.149811 2.24716,-0.299621 2.24716,0 2.09735,-0.149811 0.14981,0 1.04868,-1.198486 0,-0.299621 -0.44944,-0.599244 -0.14981,-0.599243 -0.29962,-1.048675 -0.29962,-1.048675 -0.29962,-0.898864 -2.39697,-1.647919 4.49433,-6.741483 5.84262,-5.393189 -1.04869,5.093566 -1.04867,2.546783 0.89887,3.146026 3.74526,4.943755 1.64792,1.198486 0.74905,1.048676 0.59925,0.449432 0.44943,2.247161 1.49811,1.498108 1.4981,1.797729 1.94754,1.048675 1.79773,2.247162 0.59925,0.898864 0.44943,1.647918 0,1.048676 -2.39697,0.299621 -1.3483,-0.299621 -1.79773,-0.449432 -2.09735,-0.599244 -2.39697,-0.449432 -2.54679,-0.599243 -4.49432,-0.299621 -3.29583,0 -3.44565,0.14981 -4.49432,0.599243 -2.99622,0.749054 -2.24716,0.599243 -3.29584,1.048676 -2.39697,0.449432 -1.3483,0.599243 -7.49054,3.745269 -6.14224,2.247161 -4.344508,1.647919 -5.542998,1.498107 -3.595459,1.498108 -5.243376,1.198486 -2.846405,0.749054 -1.797729,0 -1.647918,0 -3.745269,0.749053 -2.846404,0.898865 -2.396973,1.048675 -2.846404,1.198482 -1.647918,0.89887 -2.097351,1.04867 -2.097351,1.04868 -2.546782,1.3483 -1.94754,1.04867 -1.797729,0.74906 -2.396973,0.74905 -2.09735,0.74905 -1.797729,0.29962 -1.198486,0.29963 -2.247162,-0.14981 -1.647918,-0.14982 -2.546783,-0.59924 -1.797729,-1.19848 -1.797729,-1.19849 -0.898865,-1.04868 -1.048675,-1.34829 -0.749054,-1.3483 -0.299621,-0.29962 0.449432,-1.79773 -0.449432,-1.198486 0,-0.898865 0,-0.749054 0,-0.599243 0.14981,-0.599243 0.149811,-0.449432 0.149811,0 z"
         style="fill:none;fill-rule:evenodd;stroke:none;stroke-width:0.30000001;stroke-linecap:butt;stroke-linejoin:miter;stroke-miterlimit:4;stroke-dasharray:none;stroke-opacity:1"
         sodipodi:nodetypes="ccccccccccccccccccccccccccccccccccccccccccccccccccccccccccccccccccccccccccccccccccccccccccccccccccccccccccccccccccc" /></g><g
       id="g4183"><path
         id="path4177"
         d="m 18.008475,148.94068 -0.847458,7.62712 1.90678,1.27118 28.813559,-26.48305 18.220339,-17.58474 16.949153,-18.644072 21.186442,-23.305084 14.40678,-20.338983 6.99152,-5.932204 5.50848,-3.38983 3.17796,0.211864 4.44916,1.90678"
         style="fill:none;fill-rule:evenodd;stroke:none;stroke-width:1px;stroke-linecap:butt;stroke-linejoin:miter;stroke-opacity:1" /><path
         inkscape:connector-curvature="0"
         id="path4171"
         d="m 136.86441,47.033898 -70.762715,78.601692 -51.483051,42.79661 -0.847458,-5.29661 1.059323,-7.83898"
         style="fill:none;fill-rule:evenodd;stroke:none;stroke-width:1px;stroke-linecap:butt;stroke-linejoin:miter;stroke-opacity:1" /><path
         id="path4181"
         d="m 138.77119,44.279661 4.66101,4.872881 0.42373,4.872881 -2.33051,4.449153 -15.25423,12.711864 -9.5339,12.711865 -13.34746,16.313555 -19.703389,21.61018 -32.20339,24.3644 L 25.423729,167.79661 14.618644,175 l -2.330508,-0.63559 -1.059322,-4.02543 -1.2711869,-0.63559 -0.4237288,-7.62712 2.5423727,-6.14407 3.389831,-4.87288 2.542373,-2.11864"
         style="fill:none;fill-rule:evenodd;stroke:none;stroke-width:1px;stroke-linecap:butt;stroke-linejoin:miter;stroke-opacity:1" /><path
         style="fill:none;fill-rule:evenodd;stroke:none;stroke-width:1px;stroke-linecap:butt;stroke-linejoin:miter;stroke-opacity:1"
         d="m 138.77119,44.279661 4.66101,4.872881 0.42373,4.872881 -2.33051,4.449153 -15.25423,12.711864 -9.5339,12.711865 -13.34746,16.313555 -19.703389,21.61018 -32.20339,24.3644 L 25.423729,167.79661 14.618644,175 l -2.330508,-0.63559 -1.059322,-4.02543 -1.2711869,-0.63559 -0.4237288,-7.62712 2.5423727,-6.14407 3.389831,-4.87288 2.542373,-2.11864 -0.847458,7.62712 1.90678,1.27118 28.813559,-26.48305 18.220339,-17.58474 16.949153,-18.644072 21.186442,-23.305084 14.40678,-20.338983 6.99152,-5.932204 5.50848,-3.38983 3.17796,0.211864 z"
         id="path4173"
         inkscape:connector-curvature="0"
         sodipodi:nodetypes="ccccccccccccccccccccccccccccc" /></g><g
       id="g8340"
       style="fill:none;stroke:none"><path
         sodipodi:nodetypes="ccccccccccccc"
         inkscape:connector-curvature="0"
         id="path8332"
         d="m 90.78532,167.19144 -6.591673,-5.09356 -6.591674,-3.74527 -3.445647,-3.14603 -2.546783,-4.04489 -1.048675,-4.1947 0.898864,-4.34451 1.94754,-4.34451 1.198486,-3.59546 0.898865,-2.99622 0,-2.54678 2.09735,-11.38562 8.239592,-2.99621"
         style="fill:none;fill-rule:evenodd;stroke:none;stroke-width:0.30000001;stroke-linecap:butt;stroke-linejoin:miter;stroke-miterlimit:4;stroke-dasharray:none;stroke-opacity:1" /><path
         inkscape:connector-curvature="0"
         id="path8338"
         d="m 84.9427,115.80635 0.149811,2.24716 -0.149811,1.94754 -0.599243,2.09736 -0.14981,2.8464 -0.898865,3.29584 -0.599243,3.14602 -0.449432,3.29584 -0.149811,3.59546 -0.599243,2.39697 -0.599243,1.79773 -0.449432,1.64792 -0.299622,2.24716 0.449432,2.39697 0.449433,2.24716 0.898864,2.39697 0.898865,1.94754 1.198486,2.09735 1.348297,1.94754 1.048675,1.79773 1.198486,1.19849 1.198486,1.49811 0.449432,0.74905 0.898865,1.04868 0.449432,0.59924"
         style="fill:none;fill-rule:evenodd;stroke:none;stroke-width:0.30000001;stroke-linecap:butt;stroke-linejoin:miter;stroke-miterlimit:4;stroke-dasharray:none;stroke-opacity:1"
         sodipodi:nodetypes="ccccccccccccccccccccccccc" /><path
         sodipodi:nodetypes="ccccccccc"
         inkscape:connector-curvature="0"
         id="path8336"
         d="m 85.541944,114.75768 4.344511,1.34829 0,4.94376 1.79773,2.69659 -2.097351,16.17957 -2.396972,7.49053 4.344512,13.48297 0,5.84262 -0.749054,0.44943"
         style="fill:none;fill-rule:evenodd;stroke:none;stroke-width:0.30000001;stroke-linecap:butt;stroke-linejoin:miter;stroke-miterlimit:4;stroke-dasharray:none;stroke-opacity:1" /><path
         inkscape:connector-curvature="0"
         id="path8157"
         d="m 75.504623,129.13951 2.09735,-11.38562 7.79016,-3.14602 4.494322,1.4981 0,4.94376 1.79773,2.69659 -2.097351,16.17957 -2.396972,7.49053 4.344512,13.48297 0,5.84262 -0.749054,0.44943 -6.591673,-5.09356 -6.591674,-3.74527 -3.445647,-3.14603 -2.546783,-4.04489 -1.048675,-4.1947 0.898864,-4.34451 1.94754,-4.34451 1.198486,-3.59546 0.898865,-2.99622 z"
         style="fill:none;fill-rule:evenodd;stroke:none;stroke-width:0.30000001;stroke-linecap:butt;stroke-linejoin:miter;stroke-miterlimit:4;stroke-dasharray:none;stroke-opacity:1"
         sodipodi:nodetypes="ccccccccccccccccccccc" /></g><g
       id="g8404"
       style="fill:none;stroke:none"><path
         sodipodi:nodetypes="ccccccccccccccccccc"
         inkscape:connector-curvature="0"
         id="path8396"
         d="m 90.036267,154.60734 -2.546784,-7.04111 4.644134,0.29963 2.396972,0 0.599243,1.19848 2.846404,-1.49811 5.842624,1.94754 3.74527,1.64792 0.89886,0 1.04867,-7.93997 0.59925,-11.38562 -0.29962,-13.03353 -0.44944,-7.79016 -0.14981,-4.49432 -4.1947,-0.89887 -4.49432,2.99622 -1.94754,-0.74906 -2.996216,2.09735 -2.546783,-5.84262"
         style="fill:none;fill-rule:evenodd;stroke:none;stroke-width:0.30000001;stroke-linecap:butt;stroke-linejoin:miter;stroke-miterlimit:4;stroke-dasharray:none;stroke-opacity:1" /><path
         inkscape:connector-curvature="0"
         id="path8402"
         d="m 93.931346,105.3196 1.647918,0 1.647919,-0.14981 1.498107,-0.59924 2.09735,-0.29963 1.3483,-0.44943 1.94754,-0.29962 2.09735,-0.29962 1.3483,0 1.79772,0.14981 0.89887,0.74905 1.19848,1.79773 0.29963,0.89887 0.59924,1.79773 1.19849,1.64792 0.14981,1.64791 0.29962,2.6966 0.44943,1.04867 0.59924,1.79773 0.59925,1.94754 0.44943,1.49811 0.29962,1.94754 0.29962,1.94754 0.14981,1.49811 0,1.4981 0.44943,2.54679 0.29963,1.64792 0.29962,2.24716 0.29962,1.64792 0,1.94753 -0.14981,1.64792 0,1.49811 -0.44943,2.69659 0,1.64792 -0.14981,1.3483 0.14981,1.19849 0,1.19848 0.14981,2.39697 0.14981,1.64792 0.14981,1.79773 0.14981,1.64792 0,1.94754 -0.14981,1.3483 -0.14981,2.54678 0,1.79773 0.44943,2.54678 0.44943,1.94754 0,1.19849 0,1.64792 0.44943,1.79772 0.29963,0.59925 -1.79773,-4.1947 -0.89887,-2.24716 -0.89886,-2.54679 -1.04868,-2.39697 -0.89886,-1.64792 -1.04868,-1.49811 -0.59924,-0.89886 -1.04868,-1.04868 -1.4981,-1.04867 -1.3483,-0.74905 -1.64792,-0.59925 -1.64792,-0.74905 -1.94754,-0.59924 -1.19848,-0.29963 -1.64792,-0.29962 -2.546784,-0.14981 -1.348297,0 -1.348297,-0.14981 -1.797729,0 -1.647918,0.59924 -1.348297,0.29963 -0.599243,0.29962"
         style="fill:none;fill-rule:evenodd;stroke:none;stroke-width:0.30000001;stroke-linecap:butt;stroke-linejoin:miter;stroke-miterlimit:4;stroke-dasharray:none;stroke-opacity:1"
         sodipodi:nodetypes="ccccccccccccccccccccccccccccccccccccccccccccccccccccccccccccccccccccccccc" /><path
         sodipodi:nodetypes="ccccccccccccccccccccccccccc"
         inkscape:connector-curvature="0"
         id="path8400"
         d="m 92.73286,104.27092 4.644133,-3.29583 5.692807,-1.498109 4.94376,0.749049 6.74148,4.79395 4.34451,6.29205 4.04489,6.74148 2.39698,9.58789 0.14981,10.48676 -0.89887,16.92861 0.59925,3.29584 -1.94754,5.99243 1.04867,10.18713 -1.94754,5.39319 -6.29205,-4.1947 -5.24338,-8.53922 -3.44564,-7.34072 -3.44565,-1.3483 -2.09735,-0.74905 -1.3483,0.59924 -1.048675,-0.44943 -1.198486,0.29962 -2.996215,0.89886 -1.647919,0.29962 -1.048675,0.44944 -0.599243,1.19848 -2.09735,-6.44186"
         style="fill:none;fill-rule:evenodd;stroke:none;stroke-width:0.30000001;stroke-linecap:butt;stroke-linejoin:miter;stroke-miterlimit:4;stroke-dasharray:none;stroke-opacity:1;fill-opacity:1" /><path
         inkscape:connector-curvature="0"
         id="path8394"
         d="m 93.332103,103.9713 4.04489,-2.99621 5.692807,-1.498109 4.94376,0.749049 6.74148,4.79395 4.34451,6.29205 4.04489,6.74148 2.39698,9.58789 0.14981,10.48676 -0.89887,16.92861 0.59925,3.29584 -1.94754,5.99243 1.04867,10.18713 -1.94754,5.39319 -6.29205,-4.1947 -5.24338,-8.53922 -3.44564,-7.34072 -3.44565,-1.3483 -2.09735,-0.74905 -1.3483,0.59924 -1.048675,-0.44943 -1.198486,0.29962 -2.996215,0.89886 -1.647919,0.29962 -1.048675,0.44944 -0.599243,1.19848 -0.449432,1.04868 -4.194702,-14.53165 4.644134,0.29963 2.396972,0 0.599243,1.19848 2.846404,-1.49811 5.842624,1.94754 3.74527,1.64792 0.89886,0 1.04867,-7.93997 0.59925,-11.38562 -0.29962,-13.03353 -0.44944,-7.79016 -0.14981,-4.49432 -4.1947,-0.89887 -4.49432,2.99622 -1.94754,-0.74906 -2.996216,2.09735 z"
         style="fill:none;fill-rule:evenodd;stroke:none;stroke-width:0.30000001;stroke-linecap:butt;stroke-linejoin:miter;stroke-miterlimit:4;stroke-dasharray:none;stroke-opacity:1"
         sodipodi:nodetypes="ccccccccccccccccccccccccccccccccccccccccccccc" /></g><g
       id="g8420"
       style="fill:none;stroke:none"><path
         sodipodi:nodetypes="cccccccc"
         inkscape:connector-curvature="0"
         id="path8412"
         d="m 90.635509,132.43534 0.299622,-3.74525 1.647918,-3.74528 2.097351,0.59924 1.198486,-0.29962 2.846404,1.79773 2.54678,0.59924 4.94376,4.1947"
         style="fill:none;fill-rule:evenodd;stroke:none;stroke-width:0.30000001;stroke-linecap:butt;stroke-linejoin:miter;stroke-miterlimit:4;stroke-dasharray:none;stroke-opacity:1" /><path
         inkscape:connector-curvature="0"
         id="path8418"
         d="m 91.384562,131.98592 -1.048675,0.74905 2.097351,-0.59924 0.299623,0.14981 0.599242,0 0.599243,-0.29962 1.797729,0 1.048676,-0.14981 1.048674,-1e-5 2.097351,-0.29962 2.396964,-0.29962 2.24717,-0.14981 0.44943,0.14981"
         style="fill:none;fill-rule:evenodd;stroke:none;stroke-width:0.30000001;stroke-linecap:butt;stroke-linejoin:miter;stroke-miterlimit:4;stroke-dasharray:none;stroke-opacity:1"
         sodipodi:nodetypes="ccccccccccccc" /><path
         sodipodi:nodetypes="ccccccccc"
         inkscape:connector-curvature="0"
         id="path8416"
         d="m 106.21583,131.8361 -5.39319,1.04868 -2.546782,0.89886 -3.445647,1.64792 -0.149811,2.54679 -1.198486,0.59924 -3.595459,0.44943 0.449433,0 10e-7,-8.53921"
         style="fill:none;fill-rule:evenodd;stroke:none;stroke-width:0.30000001;stroke-linecap:butt;stroke-linejoin:miter;stroke-miterlimit:4;stroke-dasharray:none;stroke-opacity:1" /><path
         sodipodi:nodetypes="cccccccccccccccc"
         inkscape:connector-curvature="0"
         id="path8410"
         d="m 90.485699,130.03838 1.647918,-5.54301 2.546783,1.04868 2.097351,0.29962 1.947539,1.19849 4.64413,1.4981 2.84641,3.29584 -5.39319,1.04868 -2.546782,0.89886 -3.445647,1.64792 -0.149811,2.54679 -2.247161,0.59924 -2.546784,0.44943 0.599243,-1.49811 -0.299621,-4.34451 z"
         style="fill:none;fill-rule:evenodd;stroke:none;stroke-width:0.30000001;stroke-linecap:butt;stroke-linejoin:miter;stroke-miterlimit:4;stroke-dasharray:none;stroke-opacity:1" /></g></g></svg>